/* XPM */
static char *eab3dd323d3649a3f5c2762b548aa77fXjlzThBV64stVC1i[] = {
/* columns rows colors chars-per-pixel */
"60 60 64 1 ",
"  c #9DB3CA",
". c #9EB8CD",
"X c #A1B6CC",
"o c #A4B9CE",
"O c #A8BDCF",
"+ c #A7BBD1",
"@ c #AABED1",
"# c #AEC1D3",
"$ c #B3C5D5",
"% c #B8C7D7",
"& c #B7C8D7",
"* c #B9C9D7",
"= c #B6C7D8",
"- c #B8C7D8",
"; c #B7C8D8",
": c #BCCCDB",
"> c #BFD0DD",
", c #C1CFDD",
"< c #C3D1DE",
"1 c #CAD5DF",
"2 c #C5D3E1",
"3 c #C9D6E2",
"4 c #CDD9E4",
"5 c #CEDAE5",
"6 c #CFDCE6",
"7 c #CBDCE8",
"8 c #D1DBE4",
"9 c #D1DDE6",
"0 c #D7DFE7",
"q c #D3DEE9",
"w c #D4DFE9",
"e c #D8DFEA",
"r c #D7E1E7",
"t c #D6E0E8",
"y c #D7E0EA",
"u c #DAE1EA",
"i c #DAE4EB",
"p c #DDE6EB",
"a c #DBE4ED",
"s c #DCE4EC",
"d c #DCE5EE",
"f c #DFE8EE",
"g c #DEE7F1",
"h c #DFE8F0",
"j c #E1E7ED",
"k c #E2E9EF",
"l c #E4E9EF",
"z c #E1E7F0",
"x c #E3EBF1",
"c c #E5EBF1",
"v c #E3ECF3",
"b c #E5ECF0",
"n c #E7ECF3",
"m c #E7EEF5",
"M c #E8EFF2",
"N c #E8EDF4",
"B c #EBEFF6",
"V c #ECF0F4",
"C c #EDF2F5",
"Z c #F0F3F7",
"A c #F2F5F9",
"S c #F7F9FB",
"D c #FAFCFD",
"F c #FBFDFD",
/* pixels */
"+X<lMi5u5N*$$2:$::**<:::232*:$+oX+#$&:3$udk535$$&*u3$+#;,*##",
"$o:tVxpkd2#X#$::<*2*::*3:,+o$*$+#@3;<5855du99b5<58u,$o#2<<;$",
"$X$dSAxx5**#+$*::*,::=$,23$++$:*<5d2w3j53ku9wpjt<t9<2#@$::;$",
"$<2dSVd298*:+:::::::$##<5ub,2q59wdxtxxa::9a9kacmtqmq<:2*<:<;",
"-29dxxjt5td:899*$=$::$+:6vfu53,uddt3<<:$<dwauddmlkFFa5*:$:,*",
"5utx58jdtkc133:#+o#:2,$<0q5dd2:uuu9+*$ X**5duNbVNxSAw2$#$**<",
"wa8dw235aau22:$o  +:3325<<:aut35q92$ Xo <92kbVVAblbb95$@$$*5",
"<8tu<:235523:@$X+++2<2$$$$$:w5532<,,*335dduVVbNVddaxd8:$$$$*",
"9duudu22,2::$####$%2:5*$=*&&535332<<25<5awucMdd9tttuw9<&$$$,",
"bldddj553<3::2$$$:3q55<*:2<2t9559322<9u8d0tcMd35qfcdu5<<><9d",
"Mjljlj5932552q<$$<wdu5:<<5uaatqqt555:<<$uttld355kbdaju6w0qtx",
"kkxdlj5aa8855t5*<5djda38udddudauuau5:#$+,0tddt53bmxzdtwuud9u",
"lkttpuq9xat<2552<9ucu0txa9958jzcxxdw2$#+#*$:ta59kbMct9udddww",
"lkt9532<3<&:3tu58aud0dkMtw235dkMAFNa5<+XX@;<2598ucVMu8udduud",
"3235::*:<<2<uddua99daxbju925u9cZSFq222o Xo*>2233qwapdduuw09<",
"**$**:22::3<uadddttdxxkaw9uddkVcat;$$;$  O<31::,9d35du0593<$",
"&*:*$**:,<t5,5wiu8abkddddaxkhbNx62*=$+o  :ut$**,3d550uu55*$$",
"*$#+$*<2<2t65<txVNcxjcddNq9cquNdq2;$*$O  *wu2<$d3,$2dck83o@:",
"+:+Xo$<35329<39adxVVtjtwcqwddccat5$:::;$##$325*90wt55uzM,  o",
"#$$@  *333355595tkck5dNlcu855dktkk6<2<23::0tu2#5332859tua++;",
"<*2$$#3w0959:255taixxudjcc59ddNcNa95w5q53<<9d5:5$#3t3tdtt5<5",
"3*<:&<59505:+$299ttaudMMcduwt50wtdw5uuu91wt3835<+:335cxwdd35",
"3<,3:5d9533+#$5q9tw8dNAVdbj5w2adat59dk8d53wwd825$;:::aaucb65",
"tw2321u5ud6<<<235tkdblka8dd3<558w09addu9q98t3<5:O #*:<qdbttd",
"kwbdj9ta3a3352<$atbMVkt:2q352*$255tbdd83632*:32$$$#+$5thjujc",
"kduu932,*<<1658:,tkAMk3:83a5*##;5qdljj55d5:*385:$*$*:3u0qqtx",
"udwc58q=*$23<3q,3<Mddd:$*0d33++$<8jMbaqjjtq5313<<++:225999td",
"dk092tq5$;1:<:2$2<9d9<:$5xVq:+O#*,wjjddVxa93335:5X$<<:5359th",
"xjVd9tNt3:$$*<5<$:5tw2*#:VSj3oo$*<2ww39bkj9353235#+@#$36q55x",
"bAcu39NV2Oo*2359<:3dt:;+$9ud1$&::,2352:<t82*<3559*o  o*25599",
"9Vxq5tAF7.#:25tw95593$$$596953$*533222,:<:::23353$=X  ;55<3<",
":<9tdbhg:o:<2599a959t$+#29992$+<35t522::,::5u92:<:o   #23:$;",
"::<<92:$#+:2333ta39p0$+;<kaqa#+$<5uw222952<9533<::$o   $$$$<",
":,<3:#$,2:5q335t5$,t88:85d521$$*:5qu88aa9822uw23:2+$oX$=++#$",
"&:<3:#q6*255222,$$:kkd<aw5<<:,:::,<5q5euq523da<*32+*$#*:o o$",
";,::*<da223:<$$$<*ttwx9zt232822,:,55a9jua86w5t3,<+$3*,<=+ ++",
"+;**$5d525kt6:#*wrfd0dxduwqqw96225waw9aujub393<,*;,<3a22:##o",
"+$:<:29u9aVku5$&22da9acdxdwatw99qdxdcutdpbZba3<,:::$:5du5$o#",
"$*::<9dcbccxd2$$*5wta8atuawq635335wdddd0tud953<<*$;=3apt5<+$",
"*$:,$9txVVxdu2::<5dkd2wwwtttq52<2335ww8q*<2535<:=$3,25u05$$$",
"::$o+:abbdcda23559ak5<9wxatw95**<<29a3285$*&:*w2;*8=$<u35*$$",
"<5<X *8ckckb85526uxt2:35tt9wd<:3,<5x5223x<+$*;q52u3$$*<*$$$:",
"uV2$$*<dw229832<<<55<<<5559995w3<:<3<:*:*:<*$$2u5dq:*2<:;&:2",
"wb9q5#*ci3:2::***<3:*:2533tdaduw3:*****&=<duqd5dblkw55<::<23",
"5m0t9<<bd3::*$XX$<2*:355535uttt93:****$qukbMVMwkMbkt3<2<2333",
"xSkxj0jti5:$+X;**<2<2229w939t50<::*=5:*0MVVcbk9dufa2<<33u535",
"kAMuud3*$$$o  $**=:<23:9tukk9::*<w:2N35wxVMcccxt3u8<,23wcd5a",
"dddxx565<;$o X*&,2<<3325wdaj3$$$*3tqV2<tcVNbxuw2*<3<<22twddu",
"kut0<da<$$+X  +$*223:53q5wua*$$$*2<w5225dckxa5<2,*;*:,2<355t",
"qacxdd5<$++++X @$22:*2233qu8,;&5uid93**,9Swa9:<t5322<25,<28w",
"xkNi8bb9<:o:*; +:q95:;35wwuww5:tq,w55<*53w5t5238u35q095:$$25",
"kuka0ux35:o*$:;355tt9<5w$3q1969w5t9t2<32w<33qd53dtuadq2$O#,d",
"udt0923,:XXX$:5525q5ua9:3*$$:wutttd5253q2<:3kxcwadkaa5,;$;<5",
"3tud512+X   #*q93<23abt<55<:wtwut3223<3:<:<5dkxwudxhd5;+##o*",
"99uu5552&$  X;5q5559NMw@3u5253tddi5,3<5<:<5wtd25udjjd5$oXo <",
"t9ut9<5:o  XX+,ttaddxd2 *:<+#<au0u2<**<52238fku82td5,$+o +<5",
"523u9852#o   #29adhbV5#  o#++*83<3:<$*,35,,$:982:<<*#  oo+*3",
"$O$uu5513<$#@*:2wwdu5*o XX  +#$$:::#$$<<2352#$:*$;*$#o+#+$::",
"oX*<5095wqd:;::*359:*:$#$<+X++oo@#++##*2q929$$$$#$#&#@##$@$*",
"  *kr9159bx2::<2<<::::*:<3*o$@+oXoo$*<2qud5d<$$;$;32$#$*:$#$"
};
