/* XPM */
static char *_3e918e6435f4e4ba5a57b5229756c48SuyFmP6ZwxSqeoxH[] = {
/* columns rows colors chars-per-pixel */
"60 60 200 2 ",
"   c #493613",
".  c #483815",
"X  c #4D3D1B",
"o  c #50401F",
"O  c #457402",
"+  c #4A7701",
"@  c #4A7802",
"#  c #46750A",
"$  c #49760A",
"%  c #4C780A",
"&  c #527E03",
"*  c #547F09",
"=  c #4B7712",
"-  c #4D7A11",
";  c #537E14",
":  c #547F1A",
">  c #594C2D",
",  c #547F20",
"<  c #676345",
"1  c #686B63",
"2  c #777A74",
"3  c #558104",
"4  c #598706",
"5  c #5D8B06",
"6  c #56820A",
"7  c #59870A",
"8  c #5E8B0B",
"9  c #5D8A13",
"0  c #548019",
"q  c #5A851D",
"w  c #5E891B",
"e  c #608A0B",
"r  c #618C14",
"t  c #638E1E",
"y  c #65901B",
"u  c #5B8423",
"i  c #5A832D",
"p  c #5F882A",
"a  c #5D8731",
"s  c #618A21",
"d  c #618A2D",
"f  c #669021",
"g  c #6B9424",
"h  c #66912B",
"j  c #69922B",
"k  c #719A2F",
"l  c #658D38",
"z  c #6C9535",
"x  c #6C933C",
"c  c #6E993A",
"v  c #749B35",
"b  c #739A3D",
"n  c #5E8442",
"m  c #648D42",
"M  c #6F9542",
"N  c #6F9841",
"B  c #749A48",
"V  c #759A4C",
"C  c #769B57",
"Z  c #7A9E54",
"A  c #79A145",
"S  c #7CA349",
"D  c #7DA355",
"F  c #7DA35B",
"G  c #7E9F61",
"H  c #7F817A",
"J  c #7A9C73",
"K  c #7FA262",
"L  c #80A74B",
"P  c #87AC57",
"I  c #80A35D",
"U  c #86AB5C",
"Y  c #828778",
"T  c #86A966",
"R  c #8BAD6C",
"E  c #8DB067",
"W  c #8EB16C",
"Q  c #90B567",
"!  c #93B66F",
"~  c #88A875",
"^  c #8EB07C",
"/  c #92B471",
"(  c #96B975",
")  c #92B37C",
"_  c #9ABB7C",
"`  c #909480",
"'  c #818F96",
"]  c #8D9592",
"[  c #87A788",
"{  c #9CB985",
"}  c #97B689",
"|  c #98B597",
" . c #9EBD93",
".. c #A1BB8D",
"X. c #A3BD97",
"o. c #8FAAA2",
"O. c #9FA7A9",
"+. c #98A7B4",
"@. c #ABBBA6",
"#. c #A4B9BA",
"$. c #B1BCB1",
"%. c #9CC081",
"&. c #A2C285",
"*. c #A4C58C",
"=. c #A4C194",
"-. c #A8C694",
";. c #A9C69C",
":. c #ACCB9B",
">. c #ABC6A7",
",. c #AECCA4",
"<. c #B1C9AB",
"1. c #B2CDAE",
"2. c #B4D2A4",
"3. c #B4D3AC",
"4. c #ACC3B7",
"5. c #B4CAB9",
"6. c #B7D3B4",
"7. c #BAD6B4",
"8. c #BDD9B7",
"9. c #BCD6BC",
"0. c #BDD8BB",
"q. c #C1DBBD",
"w. c #9EB7C7",
"e. c #9DB3CA",
"r. c #A8BEC3",
"t. c #A1B6CC",
"y. c #A4B9CE",
"u. c #A8BDCF",
"i. c #A7BBD0",
"p. c #AABED1",
"a. c #ABC0C6",
"s. c #B7CACB",
"d. c #BDD5C6",
"f. c #AEC1D3",
"g. c #B3C5D6",
"h. c #B7C9D6",
"j. c #BACBD6",
"k. c #B8C7D8",
"l. c #B7C8D8",
"z. c #BCCCDB",
"x. c #BDD0D2",
"c. c #BED0DB",
"v. c #BDD3E1",
"b. c #C2DCC2",
"n. c #C2D3CC",
"m. c #C5DDCC",
"M. c #C1CFDD",
"N. c #C5D4D2",
"B. c #C3D1DE",
"V. c #CAD5DF",
"C. c #CDDBD8",
"Z. c #C7E1C6",
"A. c #C7E2CB",
"S. c #CBE5CD",
"D. c #CCE5D4",
"F. c #CEE4DA",
"G. c #D1E7D5",
"H. c #D0E9D7",
"J. c #D0E6DD",
"K. c #D3EADC",
"L. c #C5D4E1",
"P. c #C9D6E2",
"I. c #C6DBE3",
"U. c #CDDAE4",
"Y. c #CEDAE5",
"T. c #CCDDE8",
"R. c #D0DBE5",
"E. c #D2DDE6",
"W. c #D4DEE8",
"Q. c #D4DFE9",
"!. c #CBE3E5",
"~. c #CEE2E8",
"^. c #D3E4E6",
"/. c #DBE5E4",
"(. c #D5EBE3",
"). c #D6E0E9",
"_. c #D6E1EA",
"`. c #D9E2EA",
"'. c #D9E2EB",
"]. c #DBE4EC",
"[. c #DDE6ED",
"{. c #D5EAEB",
"}. c #DBECEC",
"|. c #DBF1E5",
" X c #DCF2ED",
".X c #DEE7F1",
"XX c #DBECF1",
"oX c #DEF3F2",
"OX c #E0E7EE",
"+X c #E1E7EE",
"@X c #E2E9EF",
"#X c #E1E7F1",
"$X c #E5EBF1",
"%X c #E9EEF3",
"&X c #E0F4F3",
"*X c #EDF1F5",
"=X c #EEF7FB",
"-X c #F1F5F9",
";X c #F6F9FB",
":X c #FBFDFD",
/* pixels */
"i.t.B.@X%X'.Y.'.Y.%Xj.g.g.L.z.g.z.z.j.j.B.z.z.z.L.P.L.j.z.g.i.y.t.i.f.g.h.z.P.g.'.[.@XY.P.Y.g.g.h.j.'.P.g.i.f.l.M.j.f.f.",
"g.y.z.).*X$X[.@X[.L.f.t.f.k.z.z.B.j.L.j.z.z.j.P.z.M.i.y.g.j.g.i.f.p.P.l.B.Y.R.Y.Y.[.'.E.E.$XY.B.Y.R.'.M.g.y.f.L.B.B.l.g.",
"g.t.g.[.;X-X$X$XY.j.j.f.i.g.j.z.z.j.v.z.z.k.g.M.L.P.g.i.i.g.z.j.B.Y.[.L.Q.P.+XY.P.@X'.E.Q.[.+X).B.).E.B.L.f.p.g.z.z.l.g.",
"g.B.L.[.;X*X[.L.E.R.j.z.i.z.z.z.z.z.z.z.g.f.f.B.Y.'.$XM.L.Q.Y.E.Q.[.$X).$X$X].z.z.E.].E.@X'.$X%X).Q.%XQ.B.z.L.j.B.z.B.l.",
"k.L.E.[.$X$X+X).Y.).[.z.R.E.E.j.g.k.g.z.z.g.i.z.Y.$X[.'.Y.P.M.'.[.[.).P.B.B.z.g.B.[.Q.].'.[.[.%X@X@X:X:X].Y.j.z.g.z.M.j.",
"Y.'.).$XY.R.+X[.).@X$XV.P.P.z.f.i.y.f.z.L.M.g.B.Q.Q.Y.[.[.L.z.'.'.'.E.i.j.g.e.t.j.j.Y.[.'.%X$X*X%X$X;X-XQ.L.g.f.g.j.j.B.",
"Q.].R.[.Q.L.P.Y.].].'.L.L.z.g.y.e.e.i.z.P.P.L.Y.B.B.z.].).).P.Y.Q.E.L.g.e.t.y.e.B.E.L.@X$X*X*X-X$X@X$X$XE.Y.g.p.g.g.j.Y.",
"B.R.).'.B.z.L.P.Y.Y.L.P.z.p.g.t.i.i.i.L.B.L.g.g.g.g.g.z.{.XX).L.L.B.z.M.j.P.P.Y.[.[.'.*X*X$X%X*X[.[.].$X[.R.z.g.g.g.g.j.",
"E.[.'.'.[.'.L.L.M.L.z.z.g.f.f.f.f.g.k.L.z.Y.j.g.k.j.h.z.oXoXXXY.P.L.B.B.L.Y.B.Y.].Q.'.$X%X[.[.E.).).).'.Q.E.B.h.g.g.g.M.",
"$X@X].].[.+XY.Y.P.B.P.z.z.L.g.g.g.z.P.Q.Y.Y.B.j.z.L.B.Y.oXoXoX~.E.P.L.L.B.E.'.R.[.Q.).$X%X[.P.Y.Q.[.$X[.'.Y.B.B.c.B.E.[.",
"%X+X@X+X@X+XY.E.P.L.Y.Y.L.Q.B.g.g.B.Q.[.'.Y.z.c.B.Y.'.XXoXoXoX{.).Y.Y.Y.z.B.B.g.'.).).@X[.P.Y.Y.@X$X[.].+X'.Y.Q.Q.Q.).$X",
"@X@X$X[.@X+XY.].].R.R.Y.Y.).Y.j.B.Y.].+X[.].P.R.'.[.].XXoXoXoXXX{.].'.Y.z.f.g.i.M.Q.).[.[.).Y.P.$X%X$X#X[.).Q.'.'.[.E.'.",
"@X@X).).[.'.Q.E.$X].).B.L.Y.Y.L.B.E.'.$X'.Q.).$X].E.).XXoXoXoXoXXX.X[.Q.L.g.f.i.f.j.g.z.).].Y.E.@X$X%X$X).E.'.].].[.Q.Q.",
"@X@X).E.Y.P.L.B.P.B.h.z.P.).'.Y.R.].'.[.Q.[.@X%X).).{.oXoXoXoXoXoX=X%X].Y.B.i.t.t.p.l.B.L.Y.E.R.'.$X*X%X'.R.'.[.].'.'.[.",
"P.L.P.Y.z.z.j.z.B.B.L.B.'.[.[.'.].E.E.[.].$X$X+X'.).oXoX XoXoX X}.&X).L.L.L.i.e.t.y.j.c.L.L.P.P.Q.Q.].[.].].'.'.Q.Q.E.B.",
"j.j.g.j.j.z.L.L.z.z.P.B.'.].[.[.].).).[.$X$X@X].Q.n.,.b.=.S. X,.R m.v.g.g.l.g.e.e.u.B.P.V.z.z.M.E.[.P.Y.[.'.Q.Y.E.P.B.g.",
"h.j.z.j.g.j.j.z.M.B.).Y.M.Y.Q.'.'.R.].$X@X[.[.[.[.;.t g r U ! g 8 S 4.k.g.i.y.e.e.z.'.).g.j.j.M.P.[.Y.Y.Q.'.'.Y.Y.j.g.g.",
"j.g.f.i.g.j.B.L.B.L.).Y.Y.B.).$X*X%X$X$X+X$X[.[./.Z 8 8 8 8 8 8 8 8 z #.j.g.u.e.e.j.Q.'.L.B.g.[.P.M.g.L.[.$X@XR.P.y.p.z.",
"i.z.i.t.y.g.B.P.Y.P.L.E.B.P.E.].[.$X*X*X).+X).Q...9 5 8 8 8 8 8 8 e 8 B 4.z.l.g.f.f.g.P.L.Y.j.E.Q.Q.).Y.Y.'.#X%XM.e.e.y.",
"f.g.g.p.e.e.j.P.P.P.P.Y.Y.Y.E.Y.).@X$X@XY.[./.{ f 8 8 8 8 8 8 8 8 5 8 5 c 4.L.P.z.z.Q.).'.L.f.Y.P.P.L.R.Y.E.).'.].i.i.l.",
"B.j.L.g.g.f.P.Q.Q.E.Y.E.z.L.Y.Y.).].'.$X$XC.I 8 5 8 8 8 8 8 5 5 8 9 5 5 8 c N.Y.P.B.B.E.[.Y.z.Y.g.f.P.).P.).[.).).Y.B.Y.",
"P.j.B.z.h.B.Y.E.Y.Q.Y.z.i.g.L.E.E.).).].'.C.( v v b v y g P Q ! :.2.&.L k j <.E.V.Q.).P.R.P.Y.B.i.z.P.P.Y.$X$XQ.[.[.P.Y.",
"P.B.M.P.z.Y.[.E.Y.P.P.i.f.g.Y.Q.E.).Q.R.[.%X XS.Z.b.8.3.Z.|.H.8.H. X XZ.7.6.N.[.Y.P.Q.Q.[.R.L.Y.g.l.z.z.z.].].'.$X$XY.Y.",
").Q.L.P.L.V.'.Y.'.[.Y.B.B.B.L.P.Y.).@X[.$X@Xd.D N h h B W R b w z U T z h 1.].E.Q.E.R.).P.B.Y.z.u.e.f.j.z.B.Q.[.$X).).[.",
"@XQ.$X[.+XE.).].P.].P.P.Y.L.B.g.].).$X%X*X@X} 3 4 4 4 4 3 3 3 4 3 3 3 4 4 X.R.P.Y.P.L.j.z.P.L.g.g.g.f.i.g.Y.)..X+X'.+X$X",
"@X[.'.'.E.P.L.M.j.B.B.V.Y.Y.R.z.M.).@X-X%X@XT 5 4 7 4 4 4 4 4 4 4 4 4 4 7 X.Y.Y.[.Y.z.j.P.R.Y.z.g.j.g.j.z.P.'.Q.Q.Q.).$X",
"'.[.Q.$XY.R.Q.k.j.g.L.P.B.P.Q.M.P.B.%X[.[.C.x 4 4 4 4 4 4 4 4 4 4 4 4 4 4 b 5..X+X).Q.Y.P.V.P.B.B.i.i.z.L.L.Y.E.E.E.).[.",
"[.@XQ.E.L.).Q.Y.g.l.V.z.B.z.L.g.L.B.E.^. .N 9 8 4 4 4 4 4 7 4 4 4 4 4 4 7 4 h X.'.].E.P.P.P.Y.z.Y.t.g.B.B.z.Y.P.Y.E.)..X",
"$X+X*X[.E.).%X).P.z.g.g.j.B.Y.B.g.z.Y.} w S :.3.%.S j A *.2./ j 4 4 4 9 7 4 6 U (..XQ.P.Y.P.L.P.Y.f.i.p.f.g.P.Y.Q.Y.Y.$X",
"$X-X$X'.P.E.%X*XL.u.y.j.L.P.Y.Y.B.z.T.D.7.K.oXoXoX(.D.(.&X&X XZ._ E *.2.:._ _ S.oX^.L.j.B.P.Y.Y.E.j.y.e.e.y.j.L.Y.Y.E.E.",
"E.*X$XQ.Y.).-X:XT.e.f.z.L.Y.).Q.E.Y.Y.{.}.(.m.1.b.}.oXoXoXoXF.(.oX X&X&XoX(.(.(.!.B.z.z.L.P.P.Y.P.g.k.t.e.e.l.Y.Y.B.P.B.",
"z.B.E.).[.$X.X.Xz.y.z.B.L.Y.E.E.].E.Y.E.).[ d ; d R <.b.9.{ M I 6.K.F.6.) Z V V [ z.z.Y.).E.L.z.B.z.y.e.e.e.f.L.P.z.g.l.",
"z.z.B.B.E.L.z.g.f.i.z.L.P.P.P.).].P.E.[.N.l & 3 3 & ; u u * 3 3 q B x q & & & & s 4.B.E.Y.P.P.B.z.z.g.y.e.e.e.g.g.g.g.B.",
"z.M.B.P.z.f.g.M.L.z.Y.Q.P.P.Y.).Y.g.M.n.Z 6 3 3 3 3 3 3 3 3 3 3 6 & & 3 3 3 3 3 6 V s.L.'.Q.L.P.z.L.i.g.y.t.g.k.i.i.f.g.",
"h.z.B.P.z.f.Q.Y.j.L.Y.Y.L.L.L.M.g.g.h.F 6 3 3 3 3 3 3 3 3 3 3 3 3 3 3 3 3 3 3 3 3 3 C B.[.].B.j.P.L.i.j.g.f.j.z.y.e.y.g.",
"l.M.z.z.j.B.[.].L.L.P.z.B.g.g.g.B.j.@.6 3 3 3 3 3 3 3 3 3 3 3 3 3 3 3 3 3 3 3 3 3 3 q 5.Y.).P.M.B.i.g.P.j.M.B.k.i.e.i.i.",
"i.l.j.l.g.P.[.Y.L.Y.@X).Y.z.f.j.Q.N.Z 3 3 3 3 3 3 3 3 3 3 3 3 3 3 3 3 3 3 3 3 3 3 3 6 ~ Y.P.B.M.j.l.M.B.P.].L.L.z.f.f.y.",
"i.g.z.B.z.L.E.'.E.].*X@X'.Y.r.| T z 6 3 3 3 3 3 3 3 3 3 3 3 3 3 3 3 3 3 3 3 3 3 3 3 3 s >.L.B.M.z.z.z.g.z.Y.[.'.Y.g.y.f.",
"g.j.z.z.L.E.[.$X$X$X$X$X[.4.m 6 3 3 3 3 3 3 3 3 3 3 3 3 3 3 3 3 3 3 3 3 3 3 3 3 3 3 3 3 w G | s.j.g.l.k.P.].[.).Y.B.i.g.",
"j.g.z.M.g.E.).$X*X*X$X[.'.~ 3 3 3 3 6 w j v z w 6 3 3 3 3 3 3 3 3 3 3 3 3 3 3 3 3 3 3 3 3 3 6 C f.g.P.M.L.Y.'.Q.Y.g.g.g.",
"z.z.g.y.i.z.].$X$X[.$X[.'.>.W D U _ ,.b.G.K.K.b.:.E b t w z ! *._ U x w 6 & 3 3 3 w z b z j j { c.j.R.k.g.B.'.P.Y.j.g.g.",
"B.Y.B.t.e.j.R.$X@X$X@X$XR.Y.{.}. X&X&XoXoXoX&XoX&X XK.A.b.K. X&X&X XK.q.-./ D B / 7.K.(.K.D.D.^.P.'.P.g.g.j.B.j.g.g.g.z.",
"'.*XL.g.g.j.B.[.Q.L.L.E.R.P.I.T.!.d.;. .} >.F. XoXoXJ.9.1.m. XoXoXoX&XoXm.1.b.K.oX&X X(.9. .x.'.Y.].Q.z.j.L.B.z.l.h.z.L.",
"Q.$XE.Q.Y.f.j.$X'.P.z.L.z.z.j.j.a.m $ O O = x ^  .) N 0 = a ) 9.J.(.D. .a - i K  .=.^ V , # ~ [.$X@X@XQ.Y.Y.B.z.z.B.L.P.",
"Y.%XQ.).E.B.B.$X[.P.z.z.j.#.[ J m $ + @ @ @ O O O O O O O O O : x V l = O + O O # O O O O O u 9.%X$X@X'.P.B.L.B.L.P.P.P.",
"$X;X@X$X+XQ.+X).'.Y.z.g.o.i $ @ @ + + + + + + + O O O + + + + O O O O + + + + + + + + + + + % m d.[.].L.B.B.P.P.).Y.P.Y.",
"@X-X%X'.'.[.P.j.g.g.g.w.n @ + + + + + + + + + + + + + + + + + + + + + + + + + + + + + + + + + % a } 4.z.M.L.P.Q.$X[.Y.].",
"[.[.[.$X$XY.Y.Y.B.z.h.J % @ + + + + + + + + + + + + + + + + + + + + + + + + + + + + + + + + + + @ @ ; J j.L.L.).Q.[.[.'.",
"@X'.).Q.B.[.].L.T.5.F - @ + + + + + + + + + + + + + + + + + + + + + + + @ ; ; @ O + + + + + + % ; - @ # [ z.L.B.P.Y.Y.).",
"Q.].$X$X[.[.Y.~. XR O ; q : - % @ - p : + + + + O % 0 p l u @ + + @ ; Z =.b.0.{ V p ; % % : I ,.0.1.) T ^ j.Y.M.B.L.R.Q.",
"$X@X%X'.R.$X$X{.oXS.=.7.A.d.6.;.=.1.S.8.T d u l F -.q.D.K.A.R ; : M ,.|.&X&X&X&X|.D.0.,.,.0.|.&XoX&XoXoX X^.Y.z.g.g.L.Y.",
"@X'.@X].Q.'.$XY.}.oX&XoXoX X}.}.oXoXoX&X XD.D.K. XoX&X&XoX&X(.6.q.(.&XoX X}.}. XoXoX&X&X&X&X}.!.^.^.}.}.oXoXY.g.u.f.M.].",
"'.[.).Q.E.L.P.M.I.!.^.!.!.I.Y.Y.I.~.{.}.oXoX X}.^.!.^. XoXoXoX&X&XoXoX X^.T.I.^.}. XoXoX X}.{.Q.].].{.^.^.~.B.l.g.l.B.Y.",
"P.).'.[.Y.V.L.i.t.y.i.y.f.z.Q.E.P.B.L.T.^.{.^.I.Y.Y.L.x.F. XoXoXoXoX{.!.Y.B.P.z.I.!.!.^.^.}..XQ.'.[.$X.X[.Y.l.i.f.f.y.j.",
"E.E.'.'.Y.Y.Y.L.h.f.e.e.t.l.Y.Q.Y.Y.Y.E.$X$XQ.p.P.'.Y.] < ` $.n.n.@.Y #.P.L.Y.B.z.L.Y.).).[.L.Y.'.[.+X+X].Y.g.y.t.y.e.B.",
").E.'.).E.B.Y.z.y.e.e.t.t.i.M.).).].[.[.$X[.L.e.j.z.B.2     o > > X X O.j.j.B.Y.L.L.P.R.[.@X'.R.L.).[.Y.M.g.i.y.e.i.B.Y.",
"Y.L.P.'.E.R.Y.L.f.y.e.t.e.f.L.E.].[..X$X*XY.f.e.e.y.p.1 .           . ] g.j.M.P.Y.M.M.g.z.E.R.L.z.B.B.j.f.e.e.y.y.i.j.P.",
"g.u.g.'.'.Y.Y.V.P.B.g.f.p.j.z.L.Q.Q.[.'.Y.j.y.e.t.t.e.' 2 2 2 2 H H H +.g.g.B.B.L.P.Y.L.f.g.z.j.g.l.j.g.f.y.i.f.i.g.z.z.",
"y.t.j.B.Y.Q.E.Y.Q.Q.[.z.l.z.z.j.P.Y.E.z.j.z.g.f.g.B.i.t.i.i.y.y.p.g.i.i.f.f.j.L.Q.E.L.E.g.g.g.g.f.g.f.h.f.p.f.f.g.p.g.j.",
"e.e.j.@X).E.V.Y.E.$X$XL.z.z.B.L.B.B.z.z.z.z.j.z.B.P.j.y.g.p.i.y.t.y.y.g.j.L.L.Q.'.[.Y.[.B.g.g.l.g.l.P.L.g.f.g.j.z.g.f.g."
};
