/* XPM */
static char *_721809e9572447587db5c3566b19a19KApX8iJuUKmNr6uj[] = {
/* columns rows colors chars-per-pixel */
"60 60 216 2 ",
"   c #050404",
".  c #160F0D",
"X  c #151514",
"o  c #1A1617",
"O  c #1B1B1B",
"+  c #32180A",
"@  c #391D10",
"#  c #32211A",
"$  c #1F1F20",
"%  c #242424",
"&  c #2C2C2C",
"*  c #38332E",
"=  c #302F30",
"-  c #353434",
";  c #383736",
":  c #3C3C3C",
">  c #45271B",
",  c #582A14",
"<  c #743511",
"1  c #433129",
"2  c #513523",
"3  c #583A2A",
"4  c #453E38",
"5  c #513C34",
"6  c #643C23",
"7  c #49443D",
"8  c #544234",
"9  c #584130",
"0  c #73432A",
"q  c #6E4831",
"w  c #6B4C34",
"e  c #75523A",
"r  c #444444",
"t  c #494846",
"y  c #4A4A4B",
"u  c #53504D",
"i  c #4F5154",
"p  c #535454",
"a  c #745547",
"s  c #74564C",
"d  c #7C644A",
"f  c #726256",
"g  c #585B60",
"h  c #5E6468",
"j  c #666769",
"k  c #737071",
"l  c #77777A",
"z  c #853814",
"x  c #963D16",
"c  c #BC3E07",
"v  c #9B4417",
"b  c #BB490A",
"n  c #AA4712",
"m  c #B64C17",
"M  c #914923",
"N  c #8C512D",
"B  c #855637",
"V  c #925939",
"C  c #A75828",
"Z  c #B85B29",
"A  c #B95831",
"S  c #8A613C",
"D  c #B1672A",
"F  c #C84809",
"G  c #D34706",
"H  c #DB4A03",
"J  c #DA510C",
"K  c #C84E14",
"L  c #CD5714",
"P  c #DC5912",
"I  c #E1550B",
"U  c #E2550B",
"Y  c #E85A09",
"T  c #EB620C",
"R  c #FD6904",
"E  c #F2620A",
"W  c #F56708",
"Q  c #E56919",
"!  c #EB6B1A",
"~  c #F36C17",
"^  c #F77519",
"/  c #CE5D28",
"(  c #CA6927",
")  c #CF6E2F",
"_  c #C46C3B",
"`  c #DA7A34",
"'  c #E77427",
"]  c #F37924",
"[  c #845741",
"{  c #8B674D",
"}  c #986B45",
"|  c #916F51",
" . c #986956",
".. c #AB6546",
"X. c #BF6842",
"o. c #A37C57",
"O. c #917667",
"+. c #B37A6F",
"@. c #DC7D55",
"#. c #CE7975",
"$. c #FB852F",
"%. c #9A8B6E",
"&. c #B7896C",
"*. c #AA8A7B",
"=. c #D4854D",
"-. c #D28D66",
";. c #DC9B6F",
":. c #CC8B75",
">. c #D69A7D",
",. c #C7A97A",
"<. c #557D9A",
"1. c #767C82",
"2. c #7E8586",
"3. c #858B8D",
"4. c #8C8989",
"5. c #9D9387",
"6. c #8A9398",
"7. c #989A9A",
"8. c #B69C95",
"9. c #B7A399",
"0. c #8C99A5",
"q. c #9CA4AC",
"w. c #8EA2B4",
"e. c #9CABB5",
"r. c #97A8B8",
"t. c #A3A5A5",
"y. c #A0A7AD",
"u. c #A3AEB6",
"i. c #A4AEB7",
"p. c #A9B3B6",
"a. c #ABB3B6",
"s. c #A5B3BD",
"d. c #ADBBBE",
"f. c #B5B9BA",
"g. c #C19984",
"h. c #D89A85",
"j. c #D0AB90",
"k. c #DCAB9B",
"l. c #E2AD9A",
"z. c #C9B6AF",
"x. c #C7B9B4",
"c. c #D5BFB7",
"v. c #E5B1A1",
"b. c #BFC0B8",
"n. c #C0C3BB",
"m. c #9DB3CA",
"M. c #9EB8CD",
"N. c #A7B5C0",
"B. c #A8B7C5",
"V. c #ADBAC2",
"C. c #A1B6CC",
"Z. c #A4B9CE",
"A. c #A8BDCF",
"S. c #B2BCC4",
"D. c #B8BCC0",
"F. c #A7BBD0",
"G. c #AABED1",
"H. c #B4C3C4",
"J. c #BAC3C5",
"K. c #B5C3CB",
"L. c #BCC5CB",
"P. c #BCCACC",
"I. c #AEC1D3",
"U. c #B3C5D5",
"Y. c #B7C8D7",
"T. c #BBC9D5",
"R. c #B6C7D8",
"E. c #B8C7D8",
"W. c #B7C8D8",
"Q. c #BCCCDB",
"!. c #BFD0DD",
"~. c #C6C7C7",
"^. c #CDCACD",
"/. c #C3CCD3",
"(. c #C9CDD3",
"). c #C1CFDD",
"_. c #C3D3D3",
"`. c #C3D1DE",
"'. c #C8D5D8",
"]. c #CAD3DC",
"[. c #CBDBDA",
"{. c #D3D7DB",
"}. c #E6D7D1",
"|. c #CDE1DF",
" X c #D4E1DC",
".X c #C5D3E1",
"XX c #C9D6E2",
"oX c #CDD9E4",
"OX c #CEDAE5",
"+X c #CBDCE8",
"@X c #D2DCE6",
"#X c #D2DDE6",
"$X c #DADFE3",
"%X c #D4DEE8",
"&X c #CDE3E2",
"*X c #D3E4E4",
"=X c #D5E8E7",
"-X c #D6E0E9",
";X c #D6E1E9",
":X c #D9E2EA",
">X c #DBE4EC",
",X c #DDE6ED",
"<X c #D7EBE9",
"1X c #D8ECEA",
"2X c #DDE6F1",
"3X c #DFE8F0",
"4X c #E6E4E7",
"5X c #E0E7EE",
"6X c #E2E9EF",
"7X c #E1E7F1",
"8X c #E4EBF1",
"9X c #E9EEF3",
"0X c #EDF1F5",
"qX c #F2F5F9",
"wX c #F6F9FB",
"eX c #FBFCFD",
/* pixels */
"F.C.`.6X9X:XOX:XOX9XQ.U.U..XQ.U.Q.Q.Q.Q.`.Q.Q.Q..XXX.XQ.Q.U.F.Z.C.F.I.U.Y.Q.XXU.:X,X6XOXXXXXU.U.Y.Q.:XXXU.F.I.W.).Q.I.I.",
"U.Z.Q.-X0X8X,X6X,X.XI.C.I.U.Q.Q.`.Q.`.Q.Q.Q.Q.XXQ.).F.Z.U.Q.U.F.I.G.XXW.`.OX@XOXOX,X:X@X@X8XOX`.OX@X:X).U.Z.I..X`.`.W.U.",
"U.C.U.,XwXqX8X8XOXQ.Q.I.F.U.Q.Q.Q.Q.Q.Q.Q.R.U.)..XXXU.A.F.U.Q.Q.`.OX,X.X%XXX5XOXXX6X:X@X%X,X5X-X`.-X@X`..XI.G.U.Q.Q.W.U.",
"U.`..X,XwX0X,X.X@X@XQ.Q.F.Q.Q.Q.Q.Q.Q.Q.U.I.I.`.XX:X8X).`.%XOX@X%X,X8X-X8X8X>XQ.Q.@X>X@X6X:X8X9X-X%X9X%X`.Q..XQ.`.Q.`.W.",
"E..X@X,X8X8X5X-XOX-X,XQ.@X@X@XQ.U.U.U.Q.Q.U.F.Q.OX8X,X:XOXXX).:X,X,X-XXX`.`.Q.U.`.,X%X>X:X,X,X9X6X6XeXeX>XOXQ.Q.U.Q.).E.",
"OX:X-X8XOX@X5X,X-X6X8X].XXXXQ.I.Z.Z.I.Q..X).U.`.%X%XXX,X,X.XQ.:X:X:X@XF.Q.U.m.C.Q.Q.OX,X:X9X8X0X9X8XwXqX%X.XU.I.U.Q.Q.`.",
"%X>X@X,X%X.XXXOX>X>X:X.X.XQ.U.Z.m.m.F.Q.XXXX.XOX`.`.Q.>X:X-XXXOX%X@X.XU.m.C.Z.m.`.@X.X6X8X0X0XqX8X6X8X8X@XOXU.G.U.U.Q.OX",
"`.@X-X:X`.Q..XXXOXOX.XXXQ.G.U.C.Z.Z.F..X`..XU.U.U.U.U.Q.%XOXOXXX.X`.Q.).Q.XXXXOX,X,X:X0X0X8X9X0X,X,X>X8X,X@XQ.U.U.U.U.Q.",
"@X,X:X:X,X:X.X.X)..XQ.Q.U.I.I.I.I.U.E..XQ.OXQ.U.R.Q.Y.Y.OXXXOXXXXX.X`.`..XOX`.OX>X%X:X8X9X,X,X@X-X-X-X:X%X@X`.Y.U.U.U.).",
"8X6X>X>X,X5XOXOXXX`.XXQ.Q..XU.U.U.Q.XX%XXXOX`.Q.Q..X`.V.q.p.OXOX@XXX.X.X`.@X:X@X,X%X-X8X9X,XXXOX%X,X8X,X:XOX`.`.!.`.@X,X",
"9X5X6X5X6X5XXX@XXX.XXXXX.X%X`.U.U.`.%X,X:XOXQ.!.).y.3.: : : 3.%X-XOXOXXXQ.`.`.U.:X-X-X6X,XXXOXOX6X8X,X>X5X:XOX%X%X%X-X8X",
"6X6X8X,X6X5XOX>X>X@X@XOXOX-XOXQ.`.OX>X5X,X>XS.q.l - : = ; - - J.:X>X:XXXQ.I.U.F.).%X-X,X,X-XOXXX8X9X8X7X,X-X%X:X:X,X@X:X",
"6X6X-X-X,X:X%X@X8X>X-X`..XOXOX.X`.@X:X8X:X@Xr - 3 6 1 & & & & f.8X8X,X%X.XU.I.F.I.Q.U.Q.-X>XOX@X6X8X9X8X-X@X:X>X>X,X%X%X",
"6X6X-X@XOXXX.X`.XX`.Y.Q.XX-X:XOX@X>X:X,X%Xp.X + < b ( 2 % % 1.9XqXeX9X>XOX`.F.C.C.G.W.`..XOX@X@X:X8X0X9X:X@X:X,X>X:X:X,X",
"XX.XXXOXQ.Q.Q.Q.`.`..X`.:X,X,X:X>X@X@X,X:Xk   w , < n ,.*  .>.}.wXeX%X.X.X.XZ.m.C.Z.Q.!..X.XXXXX%X%X>X,X>X>X:X:X%X%X@X`.",
"Q.Q.U.Q.Q.Q..X.XQ.Q.XX`.:X>X,X,X>X-X-X,X{.. a 2 &.{ o.%.j.U $.Q ~.-XW.U.U.W.U.m.m.A.`.XX`.Q.Q.).@X,XXXOX,X:X%XOX@XXX`.U.",
"Y.Q.Q.Q.U.Q.Q.Q.).`.-XOX).OX%X:X:X@X>X8X,X5.a  .&.<.9.8 8 b ^ $.j.`.Q.R.U.F.Z.m.m.).:X-XU.Q.Q.Q.XX,XOXXX%X:X:XOXXXQ.U.U.",
"Q.U.I.F.U.Q.`..X`..X-XOXOX`.-X8X0X9X8X8X5X$Xt.8.v.c.l.+.- z ^ ~ z.XXW.U.Q.U.A.m.w.l O.p..X`.U.,XXX).U..X,X8X6X@XXXZ.G.Q.",
"F.Q.F.C.Z.U.`.XXOXXX.X@X`.XX@X>X,X8X0X0X-X5Xc.l.h.v.s h.1 b E Z -XOXU.).f.=.-.&.M K n 7..XOXQ.@X%X%X-XOXOX:X7X9X).m.m.Z.",
"I.U.U.G.m.m.Q.XXXXXXXXOXOXOX@XXX-X6X8X6XOX,X4Xk.:.+.#.>.C T m _ ;.;.=.' ' J T P E J m 7.:X.XI.OXXXXX.X@XOX@X-X:X>XF.F.W.",
"`.Q..XU.U.I.XX%X%X@XOX@XQ..XOXOX-X>X:X8X8X:X,X{.h.l.h.X.P c F P H U H H H H H H Y L m 7.,XOXQ.OXU.I.XX-XXX-X,X-X-XOX`.OX",
"XXQ.`.Q.Y.`.OX@XOX%XOXQ.F.U..X@X@X-X-X>X:X,X9X9Xz.@.A ! U ~ S =.Q G H G F H / V ....V .X@XXXOX`.F.Q.XXXXOX8X8X%X,X,XXXOX",
"XX`.).XXQ.OX,X@XOXXXXXF.I.U.XX%X@X-X%X@X,X9XqX0X@X) J E ] W e _ Y K 8.n.x.:.^.{ g.N D.%X,X@X.XOXU.W.Q.Q.Q.>X>X:X8X8XOXOX",
"-X%X.XXX.X].:XOX:X,XOX`.`.`..XXXOX-X6X,X8X6X6X>X@X^.m Y ] R ` N H H -.z.>X,X:X'.@X'.@X-XXX`.OXQ.A.m.I.Q.Q.`.%X,X8X-X-X,X",
"6X%X8X,X5X@X-X>XXX>XXXXXOX.X`.U.>X-X8X8X0X6X-XQ.`.l a Y Y R D Z c n b P ^.,X@XXXOXXX.XQ.Q.XX.XU.U.U.I.F.U.XX-X2X5X:X5X8X",
"6X,X:X:X@XXX.X).Q.`.`.`.OXOX@XQ.).-X6XqX9X6XXXQ.@Xq.j P Y R | m 5 p 7 z ~.5XOXOX,XXXQ.Q.XX@XOXQ.U.Q.U.Q.Q.XX:X%X%X%X-X8X",
":X,X%X8XOX@X%XR.Q.U..XXX`.XX%X).XX`.9X,X,X,XQ.U.Q.%X,Xg.! W } v r t - > Z :X%X5X5X-X%XOXXX`.XX`.`.F.F.Q..X.XOX@X@X@X-X,X",
",X6X%X@X.X-X%XOXU.W.`.Q.!.Q..XU..X`.@X,X@X`.Q.U.OX8X0X(.Q T V x r r ; O 4 L.,X0X8X>X@XXXXXXXOXQ.OXC.U.`.`.Q.OXXXOX@X-X2X",
"8X5X0X,X@X-X9X-XXXQ.U.U.Q.`.OX`.U.Q.OX-X%X.XQ.I.N.q.l a ! E d M r y : $ O t @X8X6X5X@XXXOXXX.XXXOXI.F.G.I.U.XXOX%XOXOX8X",
"8XqX8X:XXX@X9X0X.XA.Z.Q..XXXOX@X`.Q./.p.y.6.1.g y y t ( ^ E d e y y r & o % N.`.-X@X.XQ.`.XXOXOX@XQ.Z.m.m.Z.Q..XOXOX@X@X",
"@X0X8X%XOX-XqXeX+XM.I.Q..XOX-X%X@X3.p y y r r : : : : n E _ e 2 t y r % o % U.Q.`.Q.Q.Q..XXXXXOXXXU.R.C.m.m.W.OXOX`.XX`.",
"Q.`.@X-X,X8X2X2XQ.Z.Q.`..XOX@X@Xp.y y r : : : - & % > Q T 8 C o : r r - O 1.Q.Q.).Q.Q.OX-X@X.XQ.`.Q.Z.m.m.m.I..XXXQ.U.W.",
"Q.Q.`.`.@X.XQ.U.I.F.Q..XXXXXXXP.i r : : & & % O o @ L T ' w @ X & : : : % e.).%XOX.X`.@XOXXXXX`.Q.Q.U.Z.r.w.V.S.B.U.U.`.",
"Q.).`.XXQ.I.U.)..XQ.OX%XXXXX6.- : : : % % j 0.S.S.*.x ^ ` S e.h % & ; 7 = & /.>X%X@X.X.X:X%X.XT.s.L.K./.[.<X<X<Xu.F.I.U.",
"Y.Q.`.XXQ.I.%XOXQ..XOXOX.Xi ; % r : - % h ,X`.>XP.i * , q 4.Q.h % t C , > 3 5.:X%XXXK.S./.(.J.[.1X*X=X1X<X<X<X<XV.m.Z.U.",
"W.).Q.Q.Q.`.,X>X.X.XXXQ.K.O % - - : O j '.8X@X/.p y y y r 0..X; O   } Z < B %.D.J./.*X=X*X=X<X1X1X<X1X1X1X<X1X1Xs.m.F.F.",
"F.W.Q.W.I.XX,XOX.XXX6X].*.0 3 6 d - : y u.,X(.u r : 4 r 4 7.S.l j 3.7.f.[.1X=X*X<X<X<X<X<X<X<X1X1X1X<X1X<X1X1X1Xu.I.I.Z.",
"F.U.Q.`.Q..X@X:X@X,X{.f o.{ 6 ( * o % h @X>Xk 0 8 8 5 8 8 b.<X*X&X*X=X<X<X1X1X<X<X1X1X1X1X1X1X<X<X1X1X1X<X<X1Xu.OXU.Z.I.",
"U.Q.Q.Q.`.@X,X8X8X(.$       7 %.$ r j J.J.P._.7.6 9 3 6 e <X<X<X<X1X1X<X<X<X<X<X<X<X1X<X<X1X<X<X<X<X<X1X1X<X_.%XOX`.F.U.",
"Q.U.Q.).U.].L.{.$Xp.2.6.7.p./.*X=X*X&X&X&X=X<X[.f # , [ x.1X<X1X1X1X1X1X1X1X1X1X1X1X1X1X1X1X<X1X<X1X=X_.H.K.{.%XOXU.U.U.",
"Q.Q.U.Z.i.J.&X[.|.&X&X&X=X<X<X<X1X1X<X1X1X1X1X<X1Xt.n. X<X1X1X1X1X1X1X1X<X1X1X1X<X1X<X1X*X_.H.P.V.s.L.G.U.`.:XXXOXQ.U.U.",
"`.XX`.C._.&X<X<X<X<X1X1X1X1X1X1X1X1X1X<X1X1X1X1X<X1X<X1X<X1X<X1X<X1X1X1X1X1X1X_.H.K.V.e.B.U.%XOX.X:XXXU.U.Q.`.Q.U.U.U.Q.",
":X0X.Xe.&X1X1X1X<X1X<X1X1X1X1X1X1X1X1X<X<X1X<X1X1X1X1X<X1X1X1X<X1X=XP.L.T.V.e.K.E.Q.`.Q.U.U..X:XOX,X%XQ.Q..X`.Q.W.Y.Q..X",
"%X8X@XV.1X1X1X1X1X1X1X1X1X<X1X1X1X1X1X<X<X1X1X1X1X1X<X1X<X|.H.L.S.s.U.Q.Q.Q.Q.Y.R.`.,X:X%X,XOX,X8X6X6X%XOXOX`.Q.Q.`..XXX",
"OX9X%XV.1X<X<X1X1X1X<X1X1X1X<X1X<X<X1X<X<X<X1X<X1X[.d.L.d./.-X@XXXQ.Q.Q.Q.Q.U.%X:X6X8X9X0X9X%X6X9X8X6X-XXX`..X`..XXXXXXX",
"8XwX6X@X[.1X1X1X1X1X1X1X1X1X1X<X1X1X1X1X=X_.P.P.d./.XX@X-XOX%X`.Q.Q.Q.R.OXQ.Q.%X9X0X0X8X8X6X@X,X:X,X>X.X`.`.XXXX-XXXXXOX",
"6XqX9X:XL.|.1X1X1X1X1X1X1X1X1X1X1X[.H.S.V.`.!.@X-X:X6X6X@XQ.Q.Q.`.%XQ..X9XXXOX%X8X0X9X8X8X8X8X-XXX:X@X`.)..XXX%X8X,XOX>X",
",X,X,X8X8Xu.H.=X1X1X1X1X1X[.H.d.i.E.`.`.XXXX.XOX%X,X>X5XXXU.U.U.Q.XX-X%X0X.X`.-X8X0X9X9X8X:X%X.XQ.`.XX`.`..X.X-X%X,X,X:X",
"6X:X-X%X`.,X>Xs.N.s.s.r.0.r.F.U.Q..X.XXXQ.XXXX%XOX%X:X>XE.U.U.U.Q..X`.%XOX.X.XOX,X8X6X8X>XOX`..X).Q.W.Q.Q.)..X`.XXOXOX-X",
"%X>X8X8X,X,XOX`.U.F.F.F.F.C.m.F.U..X.XQ.Q..X.XXXXX%X:X@X).W.Y.OX:X:X>X@XXXQ.Q.).@XwX%X>X@XQ.`.-XOXXX.X.X`..XXX).`..X@X%X",
"8X6X9X:X@X8X8X@X`.Q.Z.Q.Q.W.m.F.Q.%X@XOXQ.W.XXOX%X%X:X%X%XOXQ.-X%X).%XOXOX`.Q.OXXX%XOX-XOX.XXX@X:XXXOX%X%X@XXXQ.U.U..XOX",
"6X:X6X>X%X:X8XXXOXQ.Z.Q.U.Q.W.XXOXXX-X-X@X`.OX%XU.XX%X].@XOX@X%XOX-X@X-X.X`.XX.X%X`.XXXX%X,XOXXX>X-X:X>X,X%X.XU.A.I.).>X",
":X,X-X%X@X.XXX).Q.C.C.C.U.Q.OXOX.XXX%XOX:X>X@XQ.XXQ.U.U.Q.%X-X-X-X-X,XXX.XOXXX%X.X`.Q.XX6X8X8X%X>X,X6X>X>XOX).W.U.W.`.OX",
"XX-X:X,XXX`..XF.C.m.m.m.I.Q.%X@XXX`..XXX>X8X-X`.OXOX`.Q.%X-X%X-X-XXX.X.XXX`.XXQ.`.Q.`.OX,X6X8X%X:X,X8X3X,XXXW.F.I.I.Z.Q.",
"@X@X:X:XOXXXOX.XY.U.m.m.C.W.OX%XXXXXOX@X9X9X%XG.XX:XOX.XOXXX-X,X,X:XOX).XX`.OX`.Q.`.OX%X-X,X.XOX:X,X5X5X>XOXU.Z.C.Z.m.`.",
"-X@X:X-X@X`.OXQ.Z.m.m.C.C.F.).-X-X>X,X,X8X,X.Xm.Q.Q.`.F.I.`.>X:X%X:X.X`.Q.Q.`.OX.X.XXX@X,X6X:X@X.X-X,XOX).U.F.Z.m.F.`.OX",
"OX.XXX:X@X@XXX.XI.Z.m.C.m.I..X@X>X,X2X8X0XOXI.m.m.Z.I.Z.F.Q.@XXX`.XXQ.`.U.Q.).XXOX).).U.Q.@X@X.XQ.`.`.Q.I.m.m.Z.Z.F.Q.XX",
"U.A.U.:X:XXXOX`.XX`.U.U.G.Q.Q..X%X%X,X:XOXQ.Z.m.C.C.m.m.F.I.U.U.Q.Q.Q.I.U.U.`.`..XXXOX.XI.U.Q.Q.U.W.Q.U.I.Z.F.I.F.U.Q.Q.",
"Z.C.Q.`.XX%X@XOX%X%X,XQ.W.Q.Q.Q.XXOX@XQ.Q.Q.U.I.U.`.F.C.F.F.Z.Z.G.I.F.F.I.I.Q..X%X@X.X@XU.U.U.U.I.U.I.Y.I.G.I.I.U.G.U.Q.",
"m.m.Q.6X-X@X`.OX@X8X8X.XQ.Q.`..X`.`.Q.Q.Q.Q.Q.Q.`.XXQ.Z.U.G.F.Z.C.Z.Z.U.Q.`..X%X:X,XOX,X`.U.U.W.U.W.XX.XU.I.U.Q.Q.U.I.U."
};
