/* XPM */
static char *_34df9ec7e9d41258ac7e9fc483dad8flGlawvNnD8aIVIP8[] = {
/* columns rows colors chars-per-pixel */
"60 60 241 2 ",
"   c #341F0A",
".  c #321B1F",
"X  c #35220B",
"o  c #3A230D",
"O  c #3D2812",
"+  c #1F2022",
"@  c #2D292B",
"#  c #302C2E",
"$  c #2B382D",
"%  c #332D32",
"&  c #353234",
"*  c #3B3837",
"=  c #43280F",
"-  c #432B12",
";  c #462C15",
":  c #512F14",
">  c #4B331B",
",  c #533213",
"<  c #5E3C18",
"1  c #613E1A",
"2  c #4D392B",
"3  c #413E3E",
"4  c #154F2E",
"5  c #145B34",
"6  c #185836",
"7  c #314E3A",
"8  c #0F6B3A",
"9  c #126236",
"0  c #126539",
"q  c #1B673E",
"w  c #126D3C",
"e  c #0E723C",
"r  c #22613E",
"t  c #67441C",
"y  c #734E1E",
"u  c #5D532E",
"i  c #514D39",
"p  c #6F4D25",
"a  c #734E21",
"s  c #7A5423",
"d  c #785325",
"f  c #413E40",
"g  c #355647",
"h  c #205A58",
"j  c #1A6A44",
"k  c #1C7646",
"l  c #1E7156",
"z  c #256845",
"x  c #24734A",
"c  c #2C7552",
"v  c #367B58",
"b  c #2D6F71",
"n  c #444343",
"m  c #4A4848",
"M  c #525051",
"N  c #575556",
"B  c #625C58",
"V  c #49705A",
"C  c #6D7854",
"Z  c #4D5E6C",
"A  c #547068",
"S  c #686566",
"D  c #6A7074",
"F  c #767679",
"G  c #80571F",
"H  c #835C25",
"J  c #896126",
"K  c #8C642A",
"L  c #956A29",
"P  c #946D33",
"I  c #9B7437",
"U  c #A8752A",
"Y  c #A57933",
"T  c #8E7752",
"R  c #897D7E",
"E  c #2B856B",
"W  c #518D70",
"Q  c #6A8B6D",
"!  c #C58E34",
"~  c #C5913D",
"^  c #A5A25E",
"/  c #92866F",
"(  c #BEB160",
")  c #CA9D46",
"_  c #CC9E49",
"`  c #CBA250",
"'  c #D6B26E",
"]  c #D7B472",
"[  c #2D5883",
"{  c #32718A",
"}  c #2E6396",
"|  c #35699B",
" . c #336B9C",
".. c #336EA0",
"X. c #3474A3",
"o. c #3B77A4",
"O. c #367AA5",
"+. c #367CA9",
"@. c #3B7DA9",
"#. c #4B7797",
"$. c #7B7B81",
"%. c #457BA6",
"&. c #359496",
"*. c #3683A9",
"=. c #3C83AD",
"-. c #3895A9",
";. c #3785B0",
":. c #3B87B0",
">. c #3C8CB4",
",. c #3C91B7",
"<. c #3B9BB3",
"1. c #3D94BA",
"2. c #3E9ABE",
"3. c #4E8C8E",
"4. c #748D8D",
"5. c #4384AD",
"6. c #4B84AC",
"7. c #4488AF",
"8. c #518EAE",
"9. c #448CB3",
"0. c #498BB1",
"q. c #558EB3",
"w. c #4394BA",
"e. c #4893B8",
"r. c #439BBE",
"t. c #4B9BBD",
"y. c #5796B9",
"u. c #539CBD",
"i. c #6994B0",
"p. c #6598B9",
"a. c #64A3A1",
"s. c #6DA6B4",
"d. c #3E9EC0",
"f. c #3FA1C2",
"g. c #3EACCB",
"h. c #3FB0CE",
"j. c #439DC0",
"k. c #4B9EC1",
"l. c #549EC0",
"z. c #42A3C4",
"x. c #4CA3C3",
"c. c #49A9C7",
"v. c #41A7C8",
"b. c #43ACCB",
"n. c #4CACCA",
"m. c #54A3C3",
"M. c #5BA4C4",
"N. c #53A9C6",
"B. c #5AAAC6",
"V. c #53A7C8",
"C. c #54ADCA",
"Z. c #5CACCA",
"A. c #44B1CE",
"S. c #4BB2CE",
"D. c #54B3CE",
"F. c #5DB4CE",
"G. c #4AB4D0",
"H. c #57B8D2",
"J. c #67A8C5",
"K. c #63ADCA",
"L. c #79A8C3",
"P. c #65B3CD",
"I. c #6CB3CE",
"U. c #78B2CB",
"Y. c #65BCD4",
"T. c #6BBAD3",
"R. c #74B9D2",
"E. c #7ABCD4",
"W. c #6AC1D7",
"Q. c #79C3D9",
"!. c #868788",
"~. c #99948C",
"^. c #8E9090",
"/. c #97979B",
"(. c #8BAA9B",
"). c #8E9FB0",
"_. c #91AAB1",
"`. c #ACB1B4",
"'. c #DFBF88",
"]. c #E0D59A",
"[. c #86B4CB",
"{. c #95B5C9",
"}. c #9EB4CA",
"|. c #81BDD5",
" X c #A1B6CC",
".X c #A9B6C8",
"XX c #A4B9CE",
"oX c #B5BCC9",
"OX c #A7BBD0",
"+X c #AABED1",
"@X c #85C2D9",
"#X c #89C6D9",
"$X c #8CC5DA",
"%X c #99C6D8",
"&X c #93CBDD",
"*X c #B8C7CF",
"=X c #AEC1D3",
"-X c #AACEDE",
";X c #B3C5D5",
":X c #B7C8D7",
">X c #B2C6DE",
",X c #B7C8D8",
"<X c #BCCCDB",
"1X c #8BCFE1",
"2X c #97CEE0",
"3X c #95D1E2",
"4X c #9DD1E2",
"5X c #B6C9E2",
"6X c #A3D5E4",
"7X c #AADAE7",
"8X c #B6DBE7",
"9X c #BAE2EC",
"0X c #CCD0CF",
"qX c #C1CEDD",
"wX c #C2D1DE",
"eX c #CDD3DA",
"rX c #C2CFE7",
"tX c #C5D3E1",
"yX c #C9D6E2",
"uX c #CDD9E4",
"iX c #C5D2EC",
"pX c #C8D9E9",
"aX c #D2DCE6",
"sX c #D4DEE9",
"dX c #D8DFEC",
"fX c #D2DCF0",
"gX c #C7E4EB",
"hX c #D7E0E5",
"jX c #D6E1E9",
"kX c #DBE4EC",
"lX c #DDE4F2",
"zX c #E1E3E3",
"xX c #E0E7EE",
"cX c #E3E9EE",
"vX c #E0E7F4",
"bX c #E4EBF2",
"nX c #E9EEF4",
"mX c #EDF1F6",
"MX c #F5F7F7",
"NX c #F2F5F9",
"BX c #FCFDFD",
/* pixels */
"OX XwXcXnXkXuXjXuXnX<X;X;XtX<X;X<X<X<X<XwX<X<X<XtXyXtX<X<X;XOXXX XOX=X;X:X<XyX;XjXkXcXuXyXuX;X;X:X<XjXyX;XOX=X,XqX<X=X=X",
";XXX<XjXmXbXkXcXkXtX=X X=X;X<X<XwX<XwX<X<X<X<XyX<XqXOXXX;X<X;XOX=X=XyX,XwXuXaXuXuXkXjXaXaXbXuXwXuXaXjXqX;XXX=XtXwXwX,X;X",
";X X;XkXMXNXbXbXuX<X<X=XOX;X<X<X<X<X<X<X<X,X;X8.X.X.+.;.;.;.;.;.O.X.X.o.q.yXxXuXyXcXjXaXsXkXxXjXwXjXaXwXtX=X+X;X<X<X,X;X",
";XwXtXkXMXmXkXtXaXaX<X<XOX<X<X<X<X<X<X6.+.e.1.v.S.b.h.A.A.H.W.1X4X1XQ.K.k.;.X.X.<XaXkXaXcXjXbXnXjXaXnXaXwX<XtX<XwX<XwX,X",
":XtXaXkXbXbXxXjXuXjXkX<XaXaXaX<X;X+.,.d.S.A.W.Y.A.D.H.G.b.A.A.b.H.9X1X7X7X6X@XZ.>.0.q.kXjXkXxXnXcXcXBXBXkXuX<X<X;X<XqX:X",
"uXjXjXbXuXaXxXkXjXcXbXeXyXuX<X=.1.g.Q.W.S.g.H.Q.Y.A.h.h.A.H.g.g.H.G.g.G.W.3X7X7X6XE.x.+.%.nXbXmXnXbXMXNXsXtX;X=X;X<X<XwX",
"sXkXaXkXsXtXyXuXkXkXjXtXtX+.1.S.S.g.H.A.b.S.S.H.A.g.g.A.3X4XG.A.A.G.h.g.g.A.#X#X7X6X6XQ.z.;.6.NXbXcXbXbXaXuX;X+X;X;X<XuX",
"wXaXjXjXwX<XtXyXuXuXtX6.>.F.A.g.g.H.g.g.G.g.S.S.D.F.3XA.@XE.b.g.h.h.g.g.G.4XS.D.H.1X6X4X2XY.r.O.kXkXkXbXkXaX<X;X;X;X;X<X",
"aXkXjXjXkXjXtXtXqXtX@.1.g.3XH.S.g.g.g.g.g.g.Y.|.|.E.@XP.b.b.Q.A.g.S.H.g.g.b.g.S.g.g.Y.6X4X4X#Xc.;.jXjXjXsXaXwX:X;X;X;XqX",
"bXcXkXkXkXxXuXuXyX=.d.Y.g.g.g.W.g.S.g.Y.g.H.#X$X$X$X@X@XF.g.g.7XY.g.g.b.S.g.g.S.g.g.g.Y.Q.2X2X&XD.>.@.kXjXuXwXwXwXwXaXkX",
"nXxXcXxXcXxXuXaX=.z.b.b.g.b.g.g.b.g.g.g.g.T.&X&X&X&X$X&XQ.b.S.g.g.b.g.b.g.S.Y.g.b.H.g.g.b.Y.&X&X&XT.1.@.xXjXuXsXaXaXjXbX",
"cXcXbXkXcXxXuX=.z.S.g.b.D.v.b.b.g.b.g.b.9X@X4X4X4X6X4X6XQ.n.Q.g.g.n.v.g.S.H.Y.Q.6X3XY.n.g.D.6X$X&X&XT.1.@.jXsXjXjXkXaXjX",
"cXcXjXjXkXjX=.2.b.g.v.g.v.E.T.g.g.g.g.T.b.F.$X7X7X7X7X4Xn.g.v.b.g.b.F.g.H.n.n.3X7X8X9X7XD.g.b.T.@X$X$XT.t.aXjXkXkXkXsXsX",
"cXcXjXaXuX9.M.D.v.v.F.v.v.n.n.v.C.v.v.c.v.v.v.T.1X7XQ.n.n.n.n.c.v.v.g.v.C.v.v.Q.7X6X7XgX9XQ.v.v.C.$X$X$XE.w.jXkXkXjXjXxX",
"yXtXyXuX<X:.z.z.gXv.v.z.C.v.v.z.z.v.v.C.v.P.C.n.z.8XN.v.v.v.C.T.v.n.v.v.P.n.F.C.&X2X4X6X7X7XQ.v.n.@X#X@X@XZ.=.jXsXaXaXwX",
"<X<X;X<X=.r.z.C.C.z.z.z.c.z.z.z.N.z.z.E.z.z.z.F.C.C.N.z.z.C.C.#Xz.z.z.z.z.F.&Xv.F.$X4X&X4X6X8XT.z.z.T.@X@XE.r.=.aXyXwX;X",
":X<X<Xy.>.z.C.z.z.z.x.z.z.x.z.x.c.z.z.@Xz.z.z.z.z.z.c.z.x.z.z.$Xz.N.C.z.N.z.z.z.z.I.$X$X&X&X4X&XN.z.N.|.|.|.P.>.uX<X;X;X",
"<X;X=X:.r.z.R.I.N.z.R.N.d.P.z.N.z.z.N.f.f.z.Z.z.f.E.f.x.z.z.z.z.f.f.z.z.N.f.z.c.c.z.Z.%X@X$X&X4XZ.z.x.Z.E.E.E.z.=.XX+X<X",
"OX<XOX>.N.x.j.x.Z.E.x.d.r.B.E.2.2.B.2.z.d.2.z.2.2.r.d.d.z.x.d.j.z.2.N.2.$XB.z.x.Z.N.2.x.I.|.$X$XB.d.N.x.E.E.E.Z.>.}.}.XX",
"=X;X:.t.t.x.r.B.B.R.2.2.I.B.x.2.r.2.x.B.x.N.j.x.B.t.B.j.2.2.j.z.2.2.r.2.2.2.&XI.x.x.K.@XK.x.Z.P.P.x.gXr.K.R.R.R.r.9.OX,X",
"wX<Xw.I.x.2.m.j.2.2.K.2.2.2.2.2.x.x.K.k.2.R.I.@Xm.r.2.2.r.2.2.j.x.r.2.r.2.m.2.j.M.r.r.m.I.B.r.r.j.r.m.K.k.R.R.R.x.=.wXuX",
"yXi.t.K.I.M.B.r.r.2.m.2.1.1.B.x.t.k.j.m.r.K.m.m.r.r.2.2.2.2.1.2.B.r.2.1.k.2.2.k.I.I.x.r.t.j.1.x.2.B.2.2.k.I.I.I.B.:.yXuX",
"yXo.u.M.t.K.r.1.1.m.1.1.m.1.1.1.w.1.1.1.8XJ.m.t.1.-Xw.1.1.t.I.1.1.r.1.m.r.r.1.0.1.m.J.m.J.k.1.w.r.1.1.1.m.M.I.I.K.w.uXuX",
"jXO.w.u.t.w.I.t.1.1.1.|.w.t.1.t.%X:.,.w.u.w.w.1.l.1.1.u.1.1.1.1.J.t.1.1.w.1.>.l.e.t.J.1.1.1.1.m.w.1.1.1.1.k.I.I.K.t.9.kX",
"cXO.,.,.t.>.,.U.I.>.1.u.m.t.1.e.J.k.9.e.u.u.w.,.,.,.w.1.w.1.w.l.1.1.1.t.[.M.=.1.w.%X1.w.,.J.,.|.t.1.m.u.M.w.I.P.P.J.e.bX",
"cX*.e.>.>.>.>.>.w.w.w.>.t.t.w.J.+.y.6.L.t.>.>.>.t.-XU.u.>.>.t.>.w.L.hXMXMXeX%.@.=.o.J.>.M.t.t.w.u.w.%XJ.>.,.K.K.K.w.>.bX",
"jX*.>.:.>.>.y.>.>.w.>.>.>.u.:.;.i.| | ..5.[.-XtXmXBXBXBXpX%XU.pXpX).R 2 2 % } %.}  .:.>.>.w.w.>.>.>.J.u.>.w.Z.K.K.w.>.kX",
"kX*.:.y.:.:.:.:.y.:.9.:.9.9.:.5. .e.0.p.{.BXBXBX0X^./.<X`.eXoXrXoXnXBX0X. m l.=.+. .+.u.e.>.:.>.e.:.9.9.:.>.B.Z.Z.u.>.lX",
"bX*.:.:.:.9.=.:.:.:.:.:.:.:.:.5.+.:.9.L.5XBXBXBXBXMX`.N !.D /.`.F !.`.N @ N aXu.:.+.5.=.:.y.9.L.:.9.9.y.y.:.k.B.M.:.>.bX",
"bX*.:.=.=.=.=.0.=.J.%X=.=.=.=.o.%.s.o.q.BXBXbXsXnXMXMX/.^..XoXdXlXiX;X* * m iXjX8.X.o.=.=.y.=.=.=.9.e.:.J.=.t.N.m.:.,.aX",
"aX*.:.=.7.7.=.=.=.5.q.0.p.7.0.p.| i.q.nXlXqX*X/.!..XoX*X!.!.4.`.MX`.& # # & D NX[.X.+.0.0.p.L.{.0.=.0.8.p.p.M.V.t.=.1.wX",
"<X8.>.=.=.@.=.=.0.5.O.5.5.@.q.o.:.%.Z `.`.0XBXzX`.F 0XBXcX0XhXBXzXM * # # & S D hXp.p.+.q.z.5.=.=.7.7.8.L.=.t.m.u.J.w.,X",
"<X<X1.=.p.+.+.@.y.5.1.=.+.{ | o.y.*X0XMXBXBXBXBXBXeXBXBXBXlXmXbXD * N * * * n * S <X} X.w.z.o.=.=.=.q.=.p.=.9.C.y.I.;XwX",
"<XqX2.=.O.O.@.@.X.X.,.x.X.l j b #.D `.qXdXvXnXmXBXBXNXNXNXsXiX!.3 m * * m m * * & Z o.| O.2.X.8.+.{ O.+.5.+.9.r.@.1.=X;X",
":X<XK.>.X.X.@.@. .{.6.+. .j 8 W z * & M S $._.qXsXsXpXiXfXiX_.& * 3 & % & * & m # #.X.X.+.O. .@.{ j b q.O.O.:.9.;.2.XX;X",
",XwX<X2.O.o.o.X.| X.6.1.m.l 9 (.6 4 * ^.N n n n M N F /..X.X* & M & & S * @ # !.# [ q.9.t.-X%.X.b E 0 b X.6.+.X.,.}.OXOX",
"OX,X<Xx.>.6.6.%.} 3.*.1.-.z 0 j W 6 V 7 b 3.e.A m M M m M n & @ # # $ i C 7 & n & [ 6.y.2.Z.X.[ x x (.6 { X.6.5.2.=X=XXX",
"OX;X<XwXm.q.%.%.} w j b { 0 k 0 j j 7 7 3.a.H.A m M m m m 3 & # f 3 C ( ] C % n * { %.8.+.=.p.h j 9 5 z #.X.X.1.M.;XXX=X",
";X<X<X<XI.t... .} k 8 5 6 x 8 W q 5 6 V 3.s.Y.D F N !.^.B 3 D * # @ Q ].( i # & n #.y.9.,.k.b 0 w x 5 r 4. .=.d.uXwXOX;X",
"<X;X<XqX;Xc.>.} #.0 9 r 0X9 9 9 W (.4 4 g Q { Z F M M S M m * & & @ / zX( u @ @ D #.=.e.r.s.W k w j 9 6 r { 2.aXuX;X;X;X",
"<X<X;XXXOX<Xv.O.h z v 5 j e 8 x q 5 5 6 g N N N f N m N S m n z 7 N / ^ i i n n !.).p.{.b v W W 9 v c z { r.N.yXuX<X;X;X",
"wXuXwX X}.<XaXz.{ w w 9 w W 8 8 0 5 6 6 4 g D m R `./.N m * $ c 0 g M % & % & M n ).MXMXV k e 8 9 5 5 6 -.z.wX<X;X;X;X<X",
"jXmXtX;X;X<XwXkXv.E 8 9 9 0 9 5 5 5 6 6 z 4 (.MXBXBXBXF m n r 8 c 6 7 F N & @ & !.zXxX(.c x k 8 0 j j <.z.tXwX<X,X:X<XtX",
"sXbXaXaXuX=X<XbXP.v.&.0 e e k 9 j 9 5 z 5 5 6 `.BXMXsX`.S g 6 9 6 5 A cXBX4.+ S zXeXv k k k q 0 x l <.z.uXuXwX<X<XwXtXyX",
"uXnXaXjXaXwXwXbXkXuXg.-.E e c w w 0 W c z (.tXrXjXvXnXMX*XA w j 9 6 r *XNXfXaXBXMX<XW x 4.a.w 9 E z.v.jXyXwXtXwXtXyXyXyX",
"bXMXcXbXxXaXxXjXkXuX<Xb.n.a.v q 9 0 (._.;XrXiXiXiXiXiXiX`.x k k 0 V 6 4.iXrX5XiXiXiX5X3.v W 3.-.v.D.kXtXwXwXyXyXjXuXyXuX",
"cXNXnXjXjXkXyX<X;X;X;X^.W 3.i._._.=X>X>X>X>X>X>X>X>X5X5X>X{._._.a.a._.5X>X>X>X>X>X>X>X>X>Xs.{ A C T aXwXqXtXyXsXbXkXuXkX",
"kXkXkXbXbXuXuXuXwX,Xp y a 1 H J J K P T T T / / / / / / / / !.~.~.~.~.!.~.~.~.~.~./ T P P J U U L L L L wXtXtXjXsXkXkXjX",
"cXjXjXaXwXkXkXwX;X;XH L K H s a t t < 1 t a a d a y y y a a s d s a K H s H H J H J H H K s a U Y Y U L p qXtXwXyXuXuXjX",
"aXkXbXbXkXkXuXwX;XOXd a a s s d a a s P I I I I P K K K K K K L K L L L L L K Y Y Y I J H H K J H H J K s tXuXqXwXtXaXsX",
"bXcXnXkXaXbXbXaXwX<X1 t t < 1 t t t ~ ] ] ] ] ] ] ' ' ' ' ' ' ' ' ' ] ] ] ] ] ] '.'.'.` K a a a a a a a s aXuX<X;X;XtXuX",
"cXjXcXkXaXjXbXyXuX<X, , , , , , , t ) _ _ _ _ _ _ _ _ ` _ _ _ _ _ _ _ _ _ _ _ _ _ _ _ ) Y t 1 t t t t < t aXtX,X+X=XqXkX",
"jXkXjXaXaXtXyXqX<X X= ; - - - ; ; : L ! ! ! ! ! ~ ~ ! ! ! ! ! ! ! ! ! ! ! ! ! ! ! ! ! ! t , , , , , , : : uXqX,X;X,XwXuX",
"yXjXjXkXuXwXtXOX X}.o o o o o o O O = , t y G K I I L L L L U U U U U U U U U L L K d 1 ; = - - = - = ; - uX,XOX=X=XXX<X",
"aXaXjXjXuXuXuXtX:X;XX   X X X X X X       X o 2 2 O o X X o o o o o     o o o ; ; i ; O > o o o o o o o o uX;XXX XXX}.wX",
"jXaXjXjXaXwXuX<XXX}.X X X o X X X X X X X O 2 ; O           X X           X   ; O B i 2 O X X X X X X o X ;XOXXX}.OXwXuX",
"uXyXyXjXaXaXuXtX=XXX}.; - ; ; ; - - O - ; > 2 > ; ; ; ; - - - - - - - O O o o > O - u 2 o o X X X X o o X }.}.XXXXOX<XyX",
";X+X;XjXjXuXuXwXyXwX;X;X+X<X<XtXsXsXkXjXuX<XXX}. X X}.}.OX=X;X;X<X<X<X=X;X;XwXwXtXyXuXtX=X;X<X<X;X,X<X;X=XXXOX=XOX;X<X<X",
"XX X<XwXuXaXaXuXsXaXkX<X,X<X<X<XyXuXaX<X<X<X;X=X;XwXOX XOXOXXXXX+X=XOXOX=X=X<XtXaXaXtXaX;X;X;X;X=X;X=X:X=X+X=X=X;X+X;X<X",
"}.}.<XcXhXaXwXuXaXbXbXtX<X<XwXtXwXwX<X<X<X<X<X<XwXyX<XXX;X+XOXXX XXXXX;X<XwXtXaXjXkXuXkXwX;X;X,X;X,XyXtX;X=X;X<X<X;X=X;X"
};
