/* XPM */
static char *_de9f6de284e474aa97247c2fd4a9af7yxiJDFVRusWeg8o1[] = {
/* columns rows colors chars-per-pixel */
"60 60 232 2 ",
"   c #091327",
".  c #06142C",
"X  c #0A1A35",
"o  c #0C203C",
"O  c #12223B",
"+  c #0E2646",
"@  c #132845",
"#  c #122F50",
"$  c #153153",
"%  c #18375A",
"&  c #2A2C42",
"*  c #2A354F",
"=  c #36384C",
"-  c #3A3D54",
";  c #183D65",
":  c #273F60",
">  c #443E4E",
",  c #413E52",
"<  c #3A4359",
"1  c #1B4267",
"2  c #1C446C",
"3  c #1B4976",
"4  c #1E507F",
"5  c #324A69",
"6  c #244E76",
"7  c #24537B",
"8  c #2A547A",
"9  c #484657",
"0  c #504A55",
"q  c #534C57",
"w  c #66565D",
"e  c #494B62",
"r  c #4D5165",
"t  c #56566A",
"y  c #485A77",
"u  c #5A5C72",
"i  c #655B66",
"p  c #586477",
"a  c #6D6268",
"s  c #786B6E",
"d  c #686674",
"f  c #756C73",
"g  c #7E7478",
"h  c #877574",
"j  c #857778",
"k  c #91817D",
"l  c #1E5284",
"z  c #245985",
"x  c #2C5B84",
"c  c #2B638C",
"v  c #34648A",
"b  c #2A6994",
"n  c #356B95",
"m  c #2F7A9C",
"M  c #37739C",
"N  c #3779A4",
"B  c #367AA8",
"V  c #4C6C88",
"C  c #5A748A",
"Z  c #477497",
"A  c #5A7A9A",
"S  c #6A7589",
"D  c #457AA2",
"F  c #497EA6",
"G  c #567EA0",
"H  c #857C84",
"J  c #3D86AB",
"K  c #3E86B2",
"L  c #6E8393",
"P  c #4B84AA",
"I  c #5786AA",
"U  c #478AB5",
"Y  c #568DB2",
"T  c #4893BA",
"R  c #5896B8",
"E  c #6A90AB",
"W  c #6597B9",
"Q  c #6B9CBC",
"!  c #769CB6",
"~  c #61A1BF",
"^  c #77A2BD",
"/  c #428FC0",
"(  c #4B9AC5",
")  c #549BC5",
"_  c #5C9CC4",
"`  c #699EC2",
"'  c #709FC0",
"]  c #4DA3CA",
"[  c #4EA4CA",
"{  c #59A5CA",
"}  c #59AAD6",
"|  c #53ABDB",
" . c #6CA4C4",
".. c #66A4C9",
"X. c #6BAACE",
"o. c #79A8C7",
"O. c #73A6C9",
"+. c #75AACC",
"@. c #6EB1CF",
"#. c #7BB1CD",
"$. c #68A9D2",
"%. c #72AED1",
"&. c #68B4D9",
"*. c #7DB3D4",
"=. c #78B8D8",
"-. c #5DB6E2",
";. c #65BCE3",
":. c #68BCE3",
">. c #75BDE2",
",. c #6FC1DB",
"<. c #6AC5E9",
"1. c #6BC4EA",
"2. c #76C7E7",
"3. c #76D3EF",
"4. c #76D5F2",
"5. c #8C8588",
"6. c #968A89",
"7. c #8C8E97",
"8. c #999395",
"9. c #A5938A",
"0. c #A89B98",
"q. c #AEA29C",
"w. c #B5A49C",
"e. c #B9A79C",
"r. c #8996A5",
"t. c #A69EA0",
"y. c #89A7B8",
"u. c #ADA4A4",
"i. c #BAABA3",
"p. c #87ADC8",
"a. c #93ABC4",
"s. c #86B3CD",
"d. c #90B7CD",
"f. c #9DB3CA",
"g. c #83B4D3",
"h. c #89B5D3",
"j. c #85BAD5",
"k. c #8CBAD5",
"l. c #84BBDB",
"z. c #8BBEDB",
"x. c #97BBD4",
"c. c #91BED9",
"v. c #A1B6CC",
"b. c #A4B9CE",
"n. c #A8BDCF",
"m. c #A6BCD1",
"M. c #AABED1",
"N. c #8EBFE0",
"B. c #85C0DE",
"V. c #8DC2DB",
"C. c #94C2DC",
"Z. c #9BC4DC",
"A. c #98C8DB",
"S. c #AEC1D3",
"D. c #A6C7DA",
"F. c #B3C5D5",
"G. c #B6C8D7",
"H. c #B8C8D7",
"J. c #B6C9D9",
"K. c #BCCCDB",
"L. c #BCD1DD",
"P. c #88C6E4",
"I. c #95C7E3",
"U. c #94CAE5",
"Y. c #9CCAE3",
"T. c #8AD4EA",
"R. c #9AD3E8",
"E. c #8DDBF1",
"W. c #A3CCE2",
"Q. c #ABCDE3",
"!. c #B4CEE3",
"~. c #A5D1E6",
"^. c #ACD2E4",
"/. c #A4D5EC",
"(. c #ACD4EA",
"). c #AEDAEC",
"_. c #B4D2E5",
"`. c #BCD4E4",
"'. c #B8D9E6",
"]. c #B4D6EA",
"[. c #BCD4E9",
"{. c #B3DBEC",
"}. c #BCDBEC",
"|. c #A9DCF3",
" X c #B9DCF0",
".X c #81E2F6",
"XX c #BCE1EE",
"oX c #A7E1F6",
"OX c #B4E4F6",
"+X c #BDE1F1",
"@X c #C1CFDD",
"#X c #C3D1DE",
"$X c #C9D5DF",
"%X c #C5D4E1",
"&X c #C9D6E2",
"*X c #C6DBE7",
"=X c #CDD9E4",
"-X c #C4D7E9",
";X c #C3DDEC",
":X c #D2DCE6",
">X c #D4DEE8",
",X c #C0DEF0",
"<X c #C5E2EE",
"1X c #CBE2EC",
"2X c #D6E1E9",
"3X c #D9E2EA",
"4X c #DBE4EC",
"5X c #DDE6EC",
"6X c #DDE6ED",
"7X c #C3E4F2",
"8X c #CCE5F1",
"9X c #C5EAF5",
"0X c #CCE9F4",
"qX c #D3EBF6",
"wX c #D8EAF5",
"eX c #DAEDF5",
"rX c #D5EEF8",
"tX c #D8F1F9",
"yX c #DCF2FA",
"uX c #E1E7EE",
"iX c #E2E9EF",
"pX c #E1E7F1",
"aX c #E4EBF1",
"sX c #E9EEF3",
"dX c #ECF1F5",
"fX c #E3F7FA",
"gX c #E3F5FC",
"hX c #E8F7FE",
"jX c #EDF9FD",
"kX c #F1F4F9",
"lX c #F3FBFD",
"zX c #FAFDFD",
/* pixels */
"m.v.#XiXsX3X=X3X=XsXK.F.F.%XK.F.K.K.K.K.#XK.K.K.%X&X%XK.K.F.m.b.v.m.S.F.G.K.&XF.3X6XiX=X&X=XF.F.G.K.3X&XF.m.S.J.@XK.S.S.",
"F.b.K.2XdXaX6XiX6X%XS.v.S.F.K.K.#XK.#XK.K.K.K.&XK.@Xm.b.F.K.F.m.S.M.&XJ.#X=X:X=X=X6X3X:X:XaX=X#X=X:X3X@XF.b.S.%X#X#XJ.F.",
"F.v.F.6XlXkXaXaX=XK.K.S.m.F.K.K.K.K.K.K.K.G.F.@X%X&XF.n.m.F.K.K.#X=X6X%X>X&XuX=X&XiX3X:X>X6XuX2X#X2X:X#X%XS.M.F.K.K.J.F.",
"F.#X%X6XlXdX6X%X:X:XK.K.m.K.K.K.K.K.K.K.F.S.S.#X=X3XaX@X#X>X=X:X>X6XaX2XaXaX4XK.K.:X4X:XiX3XaXsX2X>XsX>X#XK.%XK.#XK.#XJ.",
"H.%X:X6XaXaXuX2X=X2X6XK.:X:X:XK.F.F.F.K.K.F.m.K.=XaX6X3X=X&X@X3X6X6X2X&X#X#XK.F.#X6X>X4X3X6X6XsXiXiXzXzX4X=XK.K.F.K.@XH.",
"=X3X2XaX=X:XuX6X2XiXaX$X&X&XK.S.b.b.S.K.%X@XF.#X2X>X=X6X6X%XK.3X3X3X:Xm.K.F.f.v.K.K.=X6X3XsXaXdXsXaXlXkX>X%XF.S.F.K.K.#X",
">X4X:X6X>X%X&X=X4X4X3X%X%XK.F.b.f.f.m.K.&X&X%X=X#XJ.`.8X1X1X7XXXOX^.^.m.f.v.b.f.#X:X%XiXaXdXdXkXaXiXaXaX:X=XF.M.F.F.K.=X",
"#X:X2X3X#XK.%X&X=X=X%X&XK.M.F.v.b.b.m.%X#X%XF.J.1XkXzXlXjXhXyXtX9XOXoXE.T.R.L.=X6X6X3XdXdXaXsXdX6X6X4XaX6X:XK.F.F.F.F.K.",
":X6X3X3X6X3X%X%X@X%XK.K.F.S.S.S.S.F.H.%XK.=XA.{.'.).R.A.).^.{./.@.@.@.=.,.,.D.=X4X>X3XaXsX6X6X:X2X2X2X3X>X:X#XG.F.F.F.@X",
"aXiX4X4X6XuX=X=X&X#X&XK.K.%XF.F.F.K.&X:XL.1XlXzXzXlXgX7X).R.V.=.A.{.).R.=.&.T.W.6X>X2XaXsX6X&X=X>X6XaX6X3X=X#X#XL.#X:X6X",
"sXuXiXuXiXuX=X:X&X%X=X=X%X>X#XF.F.#X=X1XfXzXzXlXlXjXgXtXrX0X0X0X7X7X7XXX/.U.P..XT.J.2XiX6X&X=X=XiXaX6X4XuX3X=X>X>X>X2XaX",
"iXiXaX6XiXuX=X4X4X:X:X=X=X2X=XK.#X%X8XhXlXlXlXlXjXjXhXgXgXyXtXrX7X).{.R.R.U.U.P.2..XR.=X6X2X=X&XaXsXaXpX6X2X>X3X3X6X:X3X",
"iXiX2X2X6X3X>X:XaX4X2X#X%X=X=X%XJ.rXtX8X+X<XfXjXjXjXyX8X+X7X+X7X<X+X+X{.)./.U.P.2.2.4..X`.4X=X:XiXaXsXaX2X:X3X4X4X6X>X>X",
"iXiX2X:X=X&X%X#X&X#XG.K.&X2X3X%XqXqXC.=.=.C.W.A.j.#.@.U.U.l.X.j.j.V.R.{.{.)./.R.U.P.2.2.3.R.:X:X3XaXdXsX3X:X3X6X4X3X3X6X",
"&X%X&X=XK.K.K.K.#X#X%X#X3X6X1XqX{.7X=.eXdX<X^.).{.^.V.R Y R R T J N m Y.Y.Y.I.U.P.2.>.:.1..XQ.&X>X>X4X6X4X4X3X3X>X>X:X#X",
"K.K.F.K.K.K.%X%XK.K.&X#X3X4X^.^.V.{.<XzXzXzXzXlXjXjXjXjXlXjXjX0X{.C.{ l.Y.W X.%.@.{ ) T [ D.K.#X:X6X&X=X6X3X>X=X:X&X#XF.",
"G.K.K.K.F.K.K.K.@X#X2X=X@X%X<X9XgXjXlXlXlXlXlXlXjXjXjXjXhXgXgXtX+X}.A.R  .R R T K U T ( ] T.D.#X&X6X=X=X>X3X3X=X=XK.F.F.",
"K.F.S.m.F.K.#X%X#X%X2X=XK.`.yXgXjXjXlXlXlXjXjXjXhXgXgXgXyXtXrX0X7X+X XY.W.)./.R.T.=.&.} } } 4.;X&X@XF.%X6XaXiX:X&Xb.M.K.",
"m.K.m.v.b.F.#X&X=X&X%X$XS.yXgXgXhXjXjXjXjXhXgXgXgXgXyXyXtXrXqX0X0X7X7X+X{.)./.R.R.T.T.2.:.} ;.4._.>X2X=X=X3XpXsX@Xf.f.b.",
"S.F.F.M.f.f.K.&X&X&X@XG.yXgXgXgXyXrXqXrXtXgXyXyXtXtXtXrXrX}.).~.).~.).{.(.Y.U.U.U.R.T.2.1.1.;.1.4.D.%X:X=X:X2X3X4Xm.m.J.",
"#XK.%XF.S.S.&X>X>X:XL.yXyX7X7X].{.{. X}.}.8XtXtXrXqXqX0XY.=.>.I.C.C.N.l.*. ._ R =.P.=.>.&.&.;.1.1.4.D.2X&X2X6X2X2X=X#X=X",
"&XK.#XK.G.#X=X:X=XF.tXrXY.*.}././.).{. X}.,XqXtXqX0X}.V.l.=.Y o.o.W P M M Y  .#..._ _ ( _ &.:.;.1.4.3.!.=XaXaX>X6X6X&X=X",
"&X#X@X&XK.=X6X:XF.1X7Xz.h.D.'.D.D.o.R ..#.C.}.;X7X{.Y.I.*.P P P P Y Q h._.'.^.A.h.` R Y P N B / } ;.4.2.G.4X4X3XaXaX=X=X",
"2X>X%X&X%X$X3X=XK.j.k.D.zXzXzXzXzXlXfXC.R T P j.Z.Y.Y.I.R W  .#.c.D.Z.}.wX8X1X}.D.Z.C.z.g.+.R B B &.;.2.F.#X>X6XaX2X2X6X",
"iX>XaX6XuX:X2X4Xx.+XlXlXlXlXlXlXlXlXhXtX_.k. .~ R R U J R +.+.k.'.eXwX1X8X;X;X}.].^.Q.Y.z.*.+._ U ( ] ) M.=X2X6XuX3XuXaX",
"iX6X3X3X:X&X%XJ.eXlXlXjXlXjXjXjXjXfXwX_.C.! y.L 7.L S C W +.o.k._.wXwX8X1X;X}.[._.Q.W.Y.C.z.*.X._ ) [ -.C.&X3X>X>X>X2XaX",
"3X6X>XaX=X:X#X8XhXgXgXjXhXhXhXgXgX'.C.y.8.w.e.0.e.e.e.9.a C o.#.Z.8X8X1X;X}.]._.^.Q.W.Z.C.l.*.%.X._ ;.1.2.K.=X:X:X:X2X6X",
"6XiX>X:X%X2X`.rXyXgXgXgXgXgXgXyX'.C.r.q.e.q.0.6.e.w.q.0.0.s e W k._.1X;X}.[._.Q.Q.W.Y.C.z.l.*.*.X...} 1.4.C.=X&X=X:X2X6X",
"aXuXdX6X:XH.0XqXqX0XqX<XgXyXyX0Xd.L u.w.q.9.i > i s k h 9.s s t Q Z.}.}.]._._.Q.W.Z.C.c.l.l.*.%.X.` ) &.1.4.K.=X>X=X=XaX",
"aXkXaX3X&X`.0X}.).].}.}.tXtXqXD.r.i.j 0.d , = X     O q s w.e.w p #.^.]._.^.Q.W.Y.Z.Y.I.B.*.*.%.X._ ) ) 1.4.I.%X=X=X:X:X",
":XdXaX>XK.).).V.{ R R s.}.{.W.d.6.0.0.9 - < . . X . .   g e.e.k 9 I k.].^.Q.W.D.^.~.Y.W.W.I.g.%.X.$..._ &.1.3.%X=X#X&X#X",
"K.#X:X2X=X*.j.=.^.rX8XC.R o.C.E g 5.H 9 r O . O O X . . 9 i.e.0.0 p O.C.^._.]._.{.l.' o.C.(.W.P.l.%.=.$.} 1.3.Z.&XK.F.G.",
"K.K.#X#X&X].{.;XzXzXzXjX<X .T L 8.g = & & X @ @ @ o O X X s 6.h 9 = Q +.W.Q.Y.^.o.D P D Z k.W.W.Y.P.B.>.$.;.1.>.F.F.F.#X",
"K.@X#X&XG.qXlXzXlXlXlXlXqXY.*.8.i.u.e u * + % $ $ $ @ + o = w i g 9 V  .j.^.Z.Y F Y Q Q W P R ~.` P %.&.>.:.:.1.f.m.S.F.",
"G.K.#X&X*XlXjXjXjXjXjXjXtX~.#.5.6.g 9 e @ + % 1 2 % @ @ + o 6.6.i.s < Y  .].h.D Y o.k.Y.s.Q I ` Y P F N ) >.2.4.h.f.m.F.",
"J.@XK.F.;XgXgXgXhXgXgXgXeX^.j.d d - & = + % 7 6 6 $ $ $ # + 5.0.w.j = Z M o.Q F Q h.OXOX/.z. .W W R D M N N T 2.3.f.m.m.",
"m.J.K.S.rXyXyXyXgXgXgXyXqX(.^ u.u.t 9 e $ 2 7 8 2 2 1 ; % # t w.0.6.- Z D P F P o.k.OX|./.U.g. .` W Y P N N ( { 2.S.S.b.",
"m.F.K.K.tXtXyX8XyXyXtXqX7X(.y.0.0.t t < $ 2 7 7 8 8 7 2 ; % % i.9.6.9 v F Q W Y h.c.Y./.U.I.l.#.O. .` R U B { { k.F.b.S.",
"F.K.K.D.+X0X8X8XtXrXqX0X7XW.! 7.8.r t - % 6 v c x x 6 6 8 ; $ 8.5.j 9 8 P W  .h.k.c.c.C.I.P.l.g.*.%.X.X.$.$.X.! =X#Xm.F.",
"K.F.K.S.! k.{.{.7X8X0X+X~.Y.E t u = - * 1 x n n v x x v x 1 % f s s 9 5 P W o.h.k.c.c.c.z.P.z.z.l.=.=.=.>.R 3 A =XF.F.F.",
"K.K.F.a.b b o.W.).{.(.).).W 2 7.5.- t r 2 c M b c n v v z 3 % < i w & < P Y O.h.C.Z.Y.Y.V.B.P.B.=.R D n Y ; 3 x =XK.F.F.",
"#X=X#Xo.[ ] #.m b Z ].}.Q b 7 8.8.d u e 2 x b M M n n c z 7 ; p h g 9 = 2 P  .O.#.z.*.O.Q ^ o.o.v l l l 2 3 4 z D.K.F.K.",
"3XaX^...[ [ { [ ] K p.p.B N c 7.7.d t e 1 z N N M b c z z 7 2 d j h q - % 8  .O.g.Z V D.yXyXfXrXd.M z z 4 4 z b p._.K.%X",
">X_.Q._ ( [ { [ ( T U U K J N S H u e < 1 z M R  .l.l.%.T M 2 d h s 0 - % ; D +.Y 8 R.oXoXV.P.;.;.T l z l z l b E n.%X&X",
"=X_.Q.R T ] ] / T / U K U N v t u - - 9 e r C C A I Z Z Z V : q w w > & % 3 2 =.x v |.oXoX&.2.1.| ( ; 4 l 4 4 b x ^ %X&X",
"aXdX_.Z. .X.{ ( ( ( ( T T A t.8.u.q.q.0.0.0.0.8.5.5.j g f i t q > > & & % 6 3 x 2 Z T.P.oX&.1.-.| } ; 2 3 3 ; 6 Z s.Q.=X",
"iXkXsX=X-XD.Q.Y.z.*.+...R I 7.8.8.0.0.0.t.0.0.9.6.j j H j a r 9 - & & * ; 2 3 2 3 I OXOX|.} 1.;.-.| 6 6 x I p.Z.Q.Q._.2X",
"6X6X6XaXaX&XD._.<XeXgXgXgXgXK.r.S H H 5.H H j f a i i i q 9 , = & & : 8 x I Y G A A R.OXOX/ | | ( T F ` h.D.!.!._.=X4X3X",
"iX3X2X>X#X6X2XK.F.`.;XeXgXfXgXgXrXJ.b.r.L S C p u y y y y y V Z I o.h.x.D.Z.Z.Q._.!.a.^ W I I E a.Q._._._.`.`.L.&X=X=X2X",
">X4XaXaX6X6X=X#XF.m.b.m.J.!.;X8XqX8X<X8XqXqX8X;X}.Q.x.h.s.x.Q._.[.[.[.[.[.[.[.[.[.[.[.`.`.`.`.-X-X-X`.%X#X%X=X@X#X%X:X>X",
"aXiXsX3X:XaXaX:X#XK.b.K.K.J.a.m.F.!.[.;X XQ.Q.Q.D.!.[.-X-X-X-X-X-X-X-X-X-X-X-X=X-X=X&X:X=X%X&X:X3X&X=X>X>X:X=XK.F.F.%X=X",
"iX3XiX4X>X3XaX&X=XK.b.K.F.K.J.&X=X=X#XK.K.K.=X>XH.&X>X$X:X=X:X>X=X>X:X>X%X#X&X%X>X#X&X&X>X6X=X&X4X2X3X4X6X>X%XF.n.S.@X4X",
"3X6X2X>X:X%X&X@XK.v.v.v.F.K.=X=X%X=X>X=X4X4X:XK.&XK.F.F.K.>X3X2X2X2X6X=X%X=X&X:X%X#XK.&XiXaXaX>X4X6XiX4X4X=X@XJ.F.J.#X=X",
"&X2X3X6X=X#X%Xm.v.f.f.f.S.K.>X:X&X#X%X&X4XaX2X#X=X=X#XK.>X2X>X3X2X&X%X%X&X#X&XK.#XK.#X=X6XiXaX>X3X6XaXeX6X=XJ.m.S.S.b.K.",
":X:X3X3X=X=X=X%XG.F.f.f.v.J.=X>X=X=X=X:XsXsX>XM.&X3X=X%X=X&X2X6X6X3X=X@X&X#X=X#XK.#X=X>X2X6X%X=X3X6XuXuX4X=XF.b.v.b.f.#X",
"2X:X3X2X:X#X=XK.b.f.f.v.v.m.@X2X2X4X6X6XaX6X%Xf.K.K.#Xm.S.#X4X3X>X3X%X#XK.K.#X=X%X%X&X:X6XiX3X:X%X2X6X=X@XF.m.b.f.m.#X=X",
"=X%X&X3X:X:X=X%XS.b.f.v.f.S.%X:X4X6X6XaXdX=XS.f.f.b.S.b.m.K.:X&X#X&XK.#XF.K.@X&X=X@X@XF.K.:X:X%XK.#X#XK.S.f.f.b.b.m.K.&X",
"F.n.F.3X3X=X=X#X&X#XF.F.M.K.K.%X>X>X6X3X=XK.b.f.v.v.f.f.m.S.F.F.K.K.K.S.F.F.#X#X%X&X=X%XS.F.K.K.F.J.K.F.S.b.m.S.m.F.K.K.",
"b.v.K.#X=X>X:X=X>X>X6XK.J.K.K.K.&X=X:XK.K.K.F.S.F.#Xm.v.m.m.b.b.M.S.m.m.S.S.K.%X>X:X%X:XF.F.F.F.S.F.S.G.S.M.S.S.F.M.F.K.",
"f.f.K.iX2X:X#X=X:XaXaX%XK.K.#X%X#X#XK.K.K.K.K.K.#X&XK.b.F.M.m.b.v.b.b.F.K.#X%X>X3X6X=X6X#XF.F.J.F.J.&X%XF.S.F.K.K.F.S.F."
};
