/* XPM */
static char *Vectorsasa[] = {
/* columns rows colors chars-per-pixel */
"60 60 211 2 ",
"   c #040304",
".  c #0B0B0A",
"X  c #151514",
"o  c #1A1514",
"O  c #1B1C1C",
"+  c #371B0E",
"@  c #39241A",
"#  c #242424",
"$  c #2A2925",
"%  c #2C2C2C",
"&  c #3B2C23",
"*  c #38332F",
"=  c #312F30",
"-  c #343333",
";  c #383737",
":  c #3B3A34",
">  c #3B3B3B",
",  c #48281C",
"<  c #542715",
"1  c #76330C",
"2  c #602F12",
"3  c #6D3B1D",
"4  c #573926",
"5  c #4B3630",
"6  c #493D35",
"7  c #653D25",
"8  c #57402F",
"9  c #4B433A",
"0  c #544334",
"q  c #5A4335",
"w  c #6C4C36",
"e  c #734D33",
"r  c #3F4143",
"t  c #444444",
"y  c #484543",
"u  c #474748",
"i  c #4A4A4A",
"p  c #4D4F51",
"a  c #4B5258",
"s  c #525253",
"d  c #5A5C5E",
"f  c #695747",
"g  c #785845",
"h  c #7B6458",
"j  c #5D5F61",
"k  c #5E646B",
"l  c #656565",
"z  c #666566",
"x  c #696D71",
"c  c #6C747B",
"v  c #74767B",
"b  c #8C3814",
"n  c #BB3C05",
"m  c #95431A",
"M  c #A14207",
"N  c #B94D05",
"B  c #BD440B",
"V  c #A94513",
"C  c #B74D15",
"Z  c #924D25",
"A  c #815735",
"S  c #965736",
"D  c #AC5526",
"F  c #B65A2A",
"G  c #91653D",
"H  c #BB6735",
"J  c #C94708",
"K  c #D64805",
"L  c #DC4B03",
"P  c #DE530B",
"I  c #CC5714",
"U  c #DE5A14",
"Y  c #E55305",
"T  c #E5590B",
"R  c #EF6106",
"E  c #ED610C",
"W  c #FD6A04",
"Q  c #F3630B",
"!  c #F56809",
"~  c #E56A1A",
"^  c #EB6A18",
"/  c #F36C16",
"(  c #F77519",
")  c #CE5B26",
"_  c #CB6A29",
"`  c #D36A27",
"'  c #C66D38",
"]  c #E56D22",
"[  c #F67B25",
"{  c #E47B30",
"}  c #875E48",
"|  c #815E58",
" . c #966947",
".. c #836A51",
"X. c #956B57",
"o. c #997554",
"O. c #A86847",
"+. c #B16F51",
"@. c #947D6E",
"#. c #937C72",
"$. c #CF7D4D",
"%. c #C7716E",
"&. c #DE853D",
"*. c #FD8A3A",
"=. c #978967",
"-. c #93887F",
";. c #B6816A",
":. c #B49076",
">. c #DA8954",
",. c #E08449",
"<. c #C4906F",
"1. c #D8946B",
"2. c #C6967D",
"3. c #D59578",
"4. c #C6A577",
"5. c #58809C",
"6. c #7D8387",
"7. c #8F8D8B",
"8. c #878D92",
"9. c #8C959A",
"0. c #99999B",
"q. c #B49A8A",
"w. c #8A99AA",
"e. c #929BA4",
"r. c #9BA4A7",
"t. c #98A7B6",
"y. c #A3A8A9",
"u. c #BAA8A6",
"i. c #B9B3AF",
"p. c #A4AEB6",
"a. c #A6AFB8",
"s. c #A6B5BE",
"d. c #AAB3B8",
"f. c #ADBABE",
"g. c #B3B7BA",
"h. c #C18487",
"j. c #D79783",
"k. c #DCA28C",
"l. c #DAA896",
"z. c #C4ABA2",
"x. c #CABBB4",
"c. c #E4AFA2",
"v. c #E5B3A3",
"b. c #C5C2BD",
"n. c #D3C3BC",
"m. c #9FB4C7",
"M. c #9DB3CA",
"N. c #A5B5C2",
"B. c #AAB6C0",
"V. c #ACBAC2",
"C. c #A1B6CC",
"Z. c #A4B9CE",
"A. c #AABCCC",
"S. c #B5BDC4",
"D. c #B1BECA",
"F. c #A7BBD0",
"G. c #AABED1",
"H. c #B6C3C5",
"J. c #B9C5C6",
"K. c #B8C3C8",
"L. c #BAC4CA",
"P. c #BCCACB",
"I. c #AEC1D3",
"U. c #B3C5D5",
"Y. c #BAC7D3",
"T. c #B7C8D7",
"R. c #BBC9D5",
"E. c #B6C7D8",
"W. c #B8C7D8",
"Q. c #B7C8D8",
"!. c #BCCCDB",
"~. c #BFD0DD",
"^. c #C7C9C8",
"/. c #C2CDCD",
"(. c #CCD0CF",
"). c #C4CCD3",
"_. c #C8CED3",
"`. c #C1CFDD",
"'. c #C2D2D2",
"]. c #C3D1DE",
"[. c #CAD7D8",
"{. c #CAD5DD",
"}. c #CBDADA",
"|. c #D6D6D8",
" X c #E2D9D9",
".X c #CBE1DE",
"XX c #C5D3E1",
"oX c #C9D6E2",
"OX c #CDD9E4",
"+X c #CBDCE8",
"@X c #D2DDE6",
"#X c #D9DFE7",
"$X c #D4DEE8",
"%X c #CDE3E2",
"&X c #D3E5E5",
"*X c #D4E9E7",
"=X c #D6E0E9",
"-X c #DBE4EC",
";X c #D7EBE9",
":X c #D8ECEA",
">X c #DDE6F1",
",X c #DFE8F0",
"<X c #E0E7EE",
"1X c #E2E9EF",
"2X c #E1E7F1",
"3X c #E4EBF1",
"4X c #E9EEF3",
"5X c #EDF1F5",
"6X c #F1F5F9",
"7X c #F6F9FB",
"8X c #FBFDFD",
/* pixels */
"F.C.XX1X5X-XOX=X@X4X!.U.U.!.!.Q.!.`.Q.!.].`.!.`.`.+XXX!.`.E.F.Z.C.G.G.E.W.!.oXE.=X<X1XOXOXOXU.U.T.!.=X{.U.F.U.T.~.!.G.I.",
"U.Z.!.=X5X1X-X1X-X].G.C.F.!.!.`.~.Q.~.Q.!.!.!.XX!.`.F.Z.E.W.E.G.G.F.oXW.].@X@XOXOX-X=X@X@X3X}.].oX@X=X`.U.C.I.XX~.{.Q.U.",
"I.M.U.-X7X6X1X1XOX!.!.I.F.W.!.!.~.Q.`.`.`.E.E.`.XXXXE.F.F.U.!.W.XXOX-XXX$XoX2XOXoX<X-X@X$X-X<X$X].=X@X].XXI.G.E.!.!.T.U.",
"U.].XX-X7X5X2X{.OX@X!.!.G.!.`.!.~.!.!.`.E.G.G.].+X=X4X`.XX@XOX$X$X,X3X$X2X2X-X!.!.*X-X@X<X-X3X4X=X$X4X@XXX!.XX!.].!.~.Q.",
"Q.{.@X-X3X3X1X=XoX=X-X`.@X@XOX!.E.U.E.!.!.E.G.`.OX3X1X=XOXoX`.-X,X-X$XoX].!.].U.!.-X@X-X-X<X<X4X1X,X8X8X=XOXQ.~.U.!.].W.",
"OX=X-X2XOX@X1X-X=X,X3XoXXXOX~.I.F.C.G.~.XX`.G.XX=X@XOX<X-XoX`.=X-X-X@XF.!.U.C.M.!.!.OX-X-X4X4X4X5X3X6X6X=XXXU.I.I.Q.!.!.",
"$X-X@X-X=XXXOXOX>X-X-XXXoX!.U.F.M.M.F.!.+X+X`.+X].{.`.-X=X$XoXOX@X@X].U.M.C.Z.M.].@XoX1X4X5X5X6X4X1X4X3XOXOXU.F.U.E.!.OX",
"{.OX=X=X~.~.].oXOXOXXXoX!.I.I.C.C.F.F.XX`.XXG.E.U.I.U.`.@X@XoXXXXX].!.`.!.oXOXOX-X-X$X6X6X<X4X5X-X-X-X3X-X@X!.U.U.E.U.!.",
"@X-X-X=X<X=X{.XX!.XX!.!.E.I.I.I.I.U.W.XX!.OX!.U.Q.Q.W.E.OXoXOXoXoXXXXX!.oXoX].OX-X$X=X2X4X#X2XOX-X=X=X-X$X@X].W.U.U.Y.~.",
"3X1X-X-X-X1XOXOXoX].OX!.Q.XXU.I.U.!.oX@XOXOX~.!.!.XXXXXX=X@Xa.r.P.XXXXXXXX@X-X@X<X$X-X3X4X>XoXOX=X-X3X-X=X@X].].~.].@X-X",
"4X<X1X<X1X1XOX@XXXXXOXoX~.=X].T.E.].@X-X=XOX!.].!.OX-X-X=X8.r > > 8.p.}.!.XXoXU.#X#X@X3X-XOXOXOX2X3X,X-X3X=X@X#X@X=X=X1X",
"<X1X1X<X1X-XOX-X-X@X@XOXOX=XOX!.XXOX-X,X-X-XoX@X-X-X-X-XS.- - - - : : x e.t.U.F.`.$X#X-X>X#XOXXX4X4X2X,X-X$X$X#X=X-X@X=X",
"1X1X=X=X<X=X@X@X2X-X=X].XXOXOXoX].@X$X3X=X@X=X3X-X@X@XOXf.% % % $ & 8 4 - r G.G.I.!.E.`.#X>X@X@X3X3X4X3X=X@X-X-X-X-X$X#X",
"3X1X=X@XOXOXoXXXoX].U.!.oX=X=XOX@X>X#X>X=X-X1X4X=X=XoX}.OXv # # 4 ` N 1 + X w.M.C.G.E.XXXXOX@X+X=X3X5X4X-X@X#X-X-X-X-X<X",
"{.oXoXoX!.`.!.!.].XXXXXX-X,X-X-X>X@X@X,X-X1X3X2X=X@X}.OXb.<.X.: 4.M 1 < w   a M.C.F.!.!.oXXXoXoX=X$X-X-X-X-X#X@X=X@X$X].",
"R.!.U.!.W.!.].XX!.~.XXXX=X-X1X-X-X#X$X-X2X2X2X-X=X@X<X(.~ *.P v.=.o. .:.4 q o t.M.A.XXoXXX!.!.].&X-XoXOX-X-X#X@X@XoX].U.",
"Q.Q.!.Q.U.!.!.!.!.XX=XOX!.OX=X-X#X@X#X4X<X<X<X-X-X-X3Xz.*.W J 9 q z.5.;.o.g #.C.M.`.$X$XG.!.!.!.OX-XOXoX=X=X=X@XOX!.E.U.",
"Q.U.I.I.U.!.!.{.XXXX=X@XOXXX=X3Xg.@.#.{.<X1X-X2X4X$X$Xx./ ( b - %.l.x.v.z.0.M.C.M.E.$X>XXX].E.>XoX~.U.oX-X3X2XOXoXF.F.!.",
"F.!.F.M.C.U.].oXOXXXXX%X~.oX@X-Xy.V I Z <.1.>.|.3X$X$X-X' Q N 5 j.| c.j.l.u.W.W.U.G.U.OXoXOXW.+X@X@X@X@X@X=X-X5X].M.M.F.",
"I.T.U.I.M.M.!.oXoXOXOXOXOXOX@XOX0.C J T T Q L ^ { ,.1.1.H V T D 3.%.h.j.l.`.XXXX!.!.$X$X-XoXG.+XoXoXoX@XOX@X=X=X-XZ.G.Q.",
"].W.].T.U.F.oX$X@X@XOX=X!.].OXOX7.I I T Y L K L L Y Y P U J n U +.k.c.j.|.@X$XOXoXXXXX@X-XoX!.oXU.I.{.=XOX=X-X=X=XOXoXoX",
"OX!.].!.W.].OX@XOX@XOX!.I.T.oX%X$X .O.+.S ) L J K K K ^ $.A / Y ] F $.z.-X#X#XOXXX$X=XoX@XoXOX].G.XXoXoX+X3X2X=X,X-XOXOX",
"OXXX!.OX!.@X-X@XOX}.{.I.I.I.oX=X$XS.S 2.X. X3.n.b.z.B Y ' w / [ Q P ` oX>X>X$X<X+XoX@X$X>X@XXXOXU.!.!.!.!.-X-X=X3X2XOX@X",
"@X$XXXoXXX{.=X@X$X-XOX].~.XXXXXXOX#X-X<X#X2X1X#Xx.1.L P Z _ W [ T J _.#X>X-X#X$X@X@X@X=XoX].oX!.C.C.F.!.~.~.=X2X3X=X-X-X",
"1X=X5X-X-X@X=X-XOX-XoXXXOXXXXXU.=X-X3X4X4X1X#XV.P B V n F H W T E g x 2X<X<XOXoX@XoXXX!.`.XXXXU.Q.I.I.F.I.OX=X,X>X=X,X2X",
"1X-X-X=X=XXXXX`.Q.~.XXXX%XOX@X!.].=X1X6X4X2XoXi.b 6 s 6 D  .W T T l g.2X<X<X+XOX-XOX`.W.OX@XOX!.U.!.U.!.!.oX=X@X@X@X=X,X",
"-X-X=X3XoX@X@XE.Q.U.XXXXXXoX@X`.XX{.4X-X<X<XW.D , ; u r m  .W ^ q.@X1X3X3X#X$X2X2X$X$X+XXXXXoX`.].I.F.!.XXoXOX@X@X@X=X,X",
"-X1X@X@XXX=X$XoXU.Q.XX~.].!.XXI.XX~.@X<X@X].N.> O ; u r m  .E ] S.`.$X2X<X-X>X5X2X-X@XoXoXXXOX`.OXM.E.].].!.OXOXOX@X=X2X",
"2X1X5X-X@X=X4X=XoX!.E.U.!.XXOXXXU.!.OX=X@XXX> # O > i u m ..R ~ f x 9.K.@XoX@X3X2X2X@XoX+XoXoXXX@XI.G.G.G.U.oX@X@X@X+X>X",
"3X6X3X-XoX@X5X5XXXF.Z.Q.XXoXOX@XXX!.OX-X=XN.# X % 9 i u e g R ( _ u u u j 6.e.e.d.).oXW.!.oX+XoX@XQ.F.M.M.Z.!.XXOXOXOX@X",
"&X4X3X@X+X=X6X8X+XC.I.!.XXOX$X$X@XoXOXOXoXC.# X # u i u 4 A H ! V > > > 6 r u i p s 6.!.oXoXoX@XoXU.U.M.M.M.E.OX@XoXXX].",
"!.XX@X=X>X3X>X>XQ.F.!.].XXOX@X@X-X&XOX@X;XQ.c O % u y > o Z 0 ^ ~ @ # % ; > ; r u i i p.@X@XXX!.oX!.F.M.M.M.I.XXoX!.U.Q.",
"!.!.{.Y.L.H.V.A.U.F.!.oXoXoXoX=X=XOX@X-X#XA.t.$ > 6 > = X + e ] E I + X O # % = > t > j Y.].oX].!.!.U.Z.M.m.M.U.U.I.T.].",
"!.].].V.:X;X:X[._.L.H.L.Y.OXOX=XOXU.`.$X@X).$ * 9 > % O c t.A &.( m #.L.B.r.l O # ; > > ; 8.XXoX!.XXF.U.Z.M.U.E.F.F.I.U.",
"Q.!.].H.:X;X;X:X:X*X*X-X[./.J.S.f.p.!.1X<X-.4 , < F t # k ~.#.4 < * d K.@X@X#Xx # = > r # t p E.oXXXF.Q.U.I.W.!.Z.C.F.U.",
"Q.~.!.f.:X;X;X:X:X:X:X:X;X*X&X&X*X&XJ.'.g.@. .3 F G . X r XXe.t i i i p ).@X2X).x # > ; * # O A.oXF.U.OX!.!.].T.Z.M.F.F.",
"F.Q.!.s.:X:X;X;X:X:X;X;X:X;X;X:X:X:X;X*X.X;X;X}.i.r.7.l 6.H.9.9 t 6 6 t i ).-Xy.u t : e 3 w 3 q.I.Q.~.].oX=X{.].].I.I.F.",
"F.T.!.!.H.;X;X;X:X;X;X;X:X:X:X:X;X:X;X:X:X:X:X;X;X*X*X.X&X&Xb.9 4 6 q 6 e l =X-Xj O O : _ 4 ..+.f N.!.U.!.@X-X-X}.U.Z.I.",
"W.!.!.!.V.%X:X;X;X;X;X:X:X;X:X:X:X:X:X:X:X:X:X:X;X;X;X;X;X;X:X} 7 q 8 7 0./.P./.H.l t # =.9 .     O A.W.oX-X-X=XOX].F.U.",
"!.T.!.].T.L.[.)./.;X;X:X;X;X;X;X:X;X;X;X;X:X;X;X;X;X;X;X;X;X;Xx.} < @ h P.;X*X&X.X.X&X;X;XP.p.r.7.6.p.[.L.S.=X@XOXT.U.U.",
"!.!.U.Z.F.!.-X3X<XJ.'.P.J.).P.*X:X;X;X;X;X:X;X;X:X:X;X;X:X:X:X:X}.^.r.;X;X;X:X:X;X;X:X:X;X;X;X*X*X%X%X.X.X%X'.K.OX!.Q.Q.",
"].OX].C.M.!.@X3X1X4X1X4X@XOXOXV.Y.K.J.).'.:X;X;X:X:X;X;X:X:X:X:X;X;X:X;X:X:X:X:X:X;X:X:X:X:X;X;X:X:X;X;X;X;X%X'.N.U.U.!.",
"=X5XoXU.U.!.].-X#X{.XXOXOXOX].].XX].oX+XY.V.V.R.'.P.-X;X:X:X:X:X;X;X:X:X:X;X;X:X;X:X:X:X:X:X;X;X:X;X:X;X;X;X;X%Xf.T.~.XX",
"@X4X@X@XOXI.!.3X-X{.!.XX!.!.!.!.Q.XXoX!.Q.~.XXOXOX{.H.L.H.P.&X:X:X;X:X:X:X:X;X;X;X:X;X:X:X:X;X;X;X:X:X:X;X;X;X;Xs.].oXoX",
"{.4X@X=X@X].].3X-XoXXX!.!.U.C.C.E.XXXXQ.!.oXOX@XOXOXOX=X=X=XL.L.f.P.}.:X;X;X;X;X:X:X:X:X:X:X:X:X:X:X;X:X:X:X:X:XV.XXOXXX",
"4X7X1X1X1X=X1X=X-XOX!.U.F.C.Q.!.Q.XX].`.XXoXoX@X@X@XOX@X@X@X@X].~.].N.s.f.}.P.;X:X:X:X:X;X;X:X;X:X;X:X:X:X:X:X}.).OXOXOX",
"1X6X5X=X=X-XOXQ.U.E.U.C.M.M.I.!.Q.E.!.~.oXoX!.$X=X=X1X-X@X!.!.!.XX=X!.{.4XoXOXH.P./.P.:X;X:X:X:X:X:X;X:X:X:X.Xp.2X-XOX=X",
"<X-X<X1X2XOXOXOX~.Q.U.F.M.M.Q.Q.`.XX].XXoXoXXX@X#X-X-X1XoXU.W.W.E.oX=X=X5XXX].=X3X5X|./.H.P..X:X:X:X:X;X*XP.S.=X=X>X-X=X",
"1X=X=X$X].-X-XXXU.U.G.M.M.M.I.I.!.XXXXoX!.OXoX@XOX$X-X-XW.U.W.U.Q.XX`.$XOXXX].@X,X3X2X3X-XoXA.V.V.f.N.t.B.].XX].oXOXOX=X",
"$X-X3X1X<X-XOX].U.G.G.F.F.C.M.F.I.XXoX!.Q.XXXXOXoX@X#X@X!.E.T.OX=X-X-X@XOXW.W.`.@X8X@X-X@X!.XX@XOXoXXXXXXXXXOX`.].oX@X@X",
"3X2X4X-XOX3X3X@X`.!.F.`.!.Q.M.F.!.=XOXOX!.Q.XXOX@X#X-X$X$XOX!.=X@X!.=XOXOXXX!.OXoX@XOX@X@XoXoX@X$XoXOX@X@XOXOX!.U.U.oXOX",
"1X=X3X-X=X-X3XoX@X!.F.!.U.!.Q.OXOXOX=X=XOXXXOX$XW.XX@XXX@X@X$X$XOX=X@X-XoX`.XXXX@XoXoXOX@X2XOXoX-X-X-X-X-X=XXXU.F.I.].-X",
"-X1X&X=X@XoXoX~.!.C.M.M.U.!.+X@XXXoX@X@X-X=X@X!.oXW.U.U.!.$X=X$X#X#X<X@XXXOXoX@X{.].!.oX2X3X3X$X-X-X2X-X-XOX`.!.U.Q.oXOX",
"{.=X=X-XOX].].I.M.M.M.M.G.Q.@X@XoX].].XX-X4X=XXXOX@X{.!.=X=X=X=X-XoX].].oXXXXX).].!.XXOX-X2X2X@X-X-X2X2X2XOXQ.F.I.I.M.!.",
"@XOX=X=XOXOXOX{.U.U.M.M.C.Q.+X@XoXOXOX@X4X4X$XG.oX=XOXoXOXoX$X-X-X-XOX`.oXXXOX].!.oXOX=X=X,XXXOX-X,X-X2X-XOXU.Z.M.C.M.].",
"-X@X=X-XOX~.OX!.C.M.M.C.C.G.`.=X$X-X>X,X2X,XXXC.!.!.{.A.I.].-X-X$X#XoX].W.W.].OXXXoXoX@X-X2X#X@XoX=X>X@X`.U.F.F.M.Z.oXoX",
"OX{.XX=X@XOXOXXXI.Z.M.C.M.I.].@X>X>X>X3X5X+XG.M.M.F.G.F.G.W.@XoX].XX`.`.E.W.].OXOX`.`.U.!.@X@X`.!.].].!.I.C.M.C.F.F.!.oX",
"I.I.U.=X=XOXOX{.oX`.E.U.I.!.!.XX$X$X>X#X+XQ.Z.C.C.M.C.M.F.U.I.E.!.`.`.G.W.W.`.`.XXoXOX].G.U.!.!.U.E.Q.U.G.A.F.U.F.U.!.!.",
"Z.M.!.].}.@X&XOX=X=X-X!.Q.!.~.T.oX+X@X`.Q.`.G.U.U.].F.C.G.G.C.Z.G.G.G.F.G.G.!.oX$X$X].$XU.U.E.G.I.U.I.T.I.G.U.G.U.F.U.!.",
"M.m.!.-X=X@X].OX@X4X2XXX!.!.~.].`.`.!.`.`.!.!.!.`.OXW.F.E.G.G.C.F.Z.G.G.!.].XX$X-X2XOX#X].U.E.W.E.E.}.].E.G.I.!.!.U.U.I."
};
